<svg id="Layer_1" width="40" height="40" data-name="Layer 1" xmlns="http://www.w3.org/2000/svg" viewBox="0 0 51.75 40.16"><defs><style>.cls-1{fill:#f6fbf9;}</style></defs><title>_GamePuffyCloud</title><path class="cls-1" d="M2.92,20.74c1-4.67,6.58-9.48,11-6.88a10.22,10.22,0,0,1,1.63-4.62,7.05,7.05,0,0,1,4.82-2.62,7.48,7.48,0,0,1,7.26,3.94c1.46-2.8,3.74-5.87,6.6-6.17C38,4,40,8,39.91,11.19c0,.81-.6,2.61,0,2.84.78.3,2.24-.36,3.1-.4a5.14,5.14,0,0,1,4.27,1.69,4.87,4.87,0,0,1-.55,7c.21.15.43.32.64.5a5.27,5.27,0,0,1,1.15,6.63c-1.58,2.83-5.2,4.33-8.05,5.51a37.13,37.13,0,0,1-10.2,2.64A36.07,36.07,0,0,1,10.91,34c-5.42-2.54-9.38-6.86-8-13.22"/></svg>