<svg id="Layer_1" data-name="Layer 1" xmlns="http://www.w3.org/2000/svg" xmlns:xlink="http://www.w3.org/1999/xlink" viewBox="0 0 1920 400"><defs><style>.cls-1,.cls-11,.cls-12,.cls-52,.cls-53{fill:none;}.cls-2{fill:#93b6b8;}.cls-3{fill:#a5d1d6;}.cls-4{fill:#a0ccce;}.cls-5{fill:#f4f3f3;}.cls-6{opacity:0.5;}.cls-19,.cls-20,.cls-23,.cls-7{fill:#fff;}.cls-8{fill:#e8e8e8;}.cls-9{clip-path:url(#clip-path);}.cls-10{fill:#f58a7e;}.cls-11{stroke:#000;stroke-width:0.37px;}.cls-11,.cls-12,.cls-19,.cls-20,.cls-52,.cls-53{stroke-miterlimit:10;}.cls-12{stroke:#231f20;stroke-width:0.35px;}.cls-13{fill:#c7e8ee;}.cls-14,.cls-24{fill:#d97c7c;}.cls-15{fill:#845924;}.cls-16{fill:#8baaac;}.cls-17{fill:#d0ecee;}.cls-18{fill:#54646b;}.cls-19,.cls-20,.cls-53{stroke:#fff;}.cls-19{stroke-width:0.21px;}.cls-20{stroke-width:0.17px;}.cls-21,.cls-22{fill:#d3514a;}.cls-22,.cls-23,.cls-24{fill-rule:evenodd;}.cls-25{fill:#eaf6f8;}.cls-26{fill:#6b6b6b;}.cls-27{fill:#a8c4c6;}.cls-28{fill:#60c4b6;}.cls-29{fill:#90b0b2;}.cls-30{fill:#70473f;}.cls-31{clip-path:url(#clip-path-2);}.cls-32{fill:#758d8e;}.cls-32,.cls-41{opacity:0.6;}.cls-33{fill:#eaeaea;}.cls-34{fill:#f5f7f7;}.cls-35{fill:#343738;}.cls-36{fill:#25282a;}.cls-37{fill:#f6d0c3;}.cls-38{fill:#d17674;}.cls-39{fill:#e8827c;}.cls-40{fill:#f7efdb;}.cls-41,.cls-42{fill:#7ea6a6;}.cls-43{fill:#53656c;}.cls-44{fill:#34404a;}.cls-45{fill:#fff8f4;}.cls-46{fill:#19181f;}.cls-47{fill:#3b424a;}.cls-48{fill:#cfd8d9;}.cls-49{fill:#f9f9f9;}.cls-50{fill:#bfbbba;}.cls-51{fill:#585858;}.cls-52{stroke:#d79062;}.cls-52,.cls-53{stroke-width:0.72px;}.cls-54{fill:#d79062;}.cls-55{fill:#1d7ec2;}.cls-56{fill:#fdd5b9;}.cls-57{fill:#6b8e8d;}.cls-58{fill:#762027;}.cls-59{fill:#f37b74;}.cls-60{fill:#f47a33;}.cls-61{fill:#ca4b4b;}.cls-62{fill:#358f89;}.cls-63{fill:#9b4530;}.cls-64{fill:#375254;}.cls-65{fill:#b1dfd8;}.cls-66{fill:#7a644e;}.cls-67{fill:#e9f6f8;}.cls-68{fill:#c6e7e3;}.cls-69{fill:#885622;}.cls-70{fill:#b68b62;}.cls-71{fill:#59483b;}.cls-72{fill:#9e744d;}</style><clipPath id="clip-path"><path class="cls-1" d="M345.09,322.87c-.12-.93-.74-1.62-1.4-1.54s-1.09.91-1,1.84a1.59,1.59,0,0,0,.06.3h0l3.7,29.4,2.38-.3-3.71-29.4h0A1.62,1.62,0,0,0,345.09,322.87Z"/></clipPath><clipPath id="clip-path-2"><path class="cls-1" d="M354.32,325.33c.12-.93-.31-1.76-1-1.84s-1.29.6-1.41,1.53a1.51,1.51,0,0,0,0,.3h0L348,354.69l2.37.32,3.9-29.37h0Q354.29,325.5,354.32,325.33Z"/></clipPath></defs><title>_GameBG</title><rect class="cls-2" x="-0.11" width="1920.36" height="399.6"/><path class="cls-3" d="M323.38,336l19.17-42.21s.35-1.17,1-1.29l1.51,42.73Z"/><path class="cls-4" d="M366.82,334.43l-22.1-40.75s-.44-1.14-1.13-1.22l1.51,42.73Z"/><path class="cls-5" d="M343.58,291.89s-.29-.52-3.51,7.33c0,0,2.58,2.47,3.83,2.11a21.29,21.29,0,0,0,3.83-2.1S344.71,293.1,343.58,291.89Z"/><path class="cls-3" d="M438.54,333.93,464,278s.47-1.55,1.38-1.71l2,56.65Z"/><path class="cls-4" d="M496.14,331.9l-29.3-54s-.58-1.51-1.5-1.61l2,56.65Z"/><path class="cls-5" d="M465.33,275.52s-.38-.7-4.66,9.7c0,0,3.43,3.28,5.09,2.81a28.44,28.44,0,0,0,5.07-2.79S466.83,277.12,465.33,275.52Z"/><path class="cls-3" d="M463.77,339.17l19.14-74.24s.36-2.07,1-2.24v76.48Z"/><path class="cls-4" d="M504.06,339.17l-19.14-74.24s-.36-2.07-1-2.24v76.48Z"/><path class="cls-5" d="M483.79,262.69s-.7-.4-2.24,7.5c0,0,1.24,2.8,2.38,2.52s2.38-2.4,2.38-2.4S484.71,261.84,483.79,262.69Z"/><path class="cls-3" d="M390.2,339.17l19.14-74.24s.37-2.07,1-2.24v76.48Z"/><path class="cls-4" d="M430.49,339.17l-19.13-74.24s-.37-2.07-1-2.24v76.48Z"/><path class="cls-5" d="M410.22,262.69s-.7-.4-2.24,7.5c0,0,1.25,2.8,2.38,2.52s2.38-2.4,2.38-2.4S411.14,261.84,410.22,262.69Z"/><path class="cls-3" d="M398.61,333.93l34.63-76.24s.64-2.11,1.89-2.33l2.71,77.19Z"/><path class="cls-4" d="M477.08,331.17l-39.91-73.62s-.79-2.06-2-2.19l2.71,77.19Z"/><path class="cls-5" d="M435.11,254.33s-.52-1-6.35,13.23c0,0,4.67,4.47,6.93,3.82s6.92-3.8,6.92-3.8S437.14,256.52,435.11,254.33Z"/><path class="cls-3" d="M373.34,333.93l23.77-52.33s.44-1.45,1.29-1.6l1.87,53Z"/><path class="cls-4" d="M427.2,332,399.8,281.5s-.54-1.41-1.4-1.5l1.87,53Z"/><path class="cls-5" d="M398.39,279.3s-.35-.66-4.36,9.08c0,0,3.21,3.06,4.76,2.62a26.56,26.56,0,0,0,4.75-2.61S399.79,280.8,398.39,279.3Z"/><g class="cls-6"><path class="cls-3" d="M533.14,329.9l17-23.07a1.33,1.33,0,0,1,.89-.7V329.9Z"/><path class="cls-4" d="M568.9,329.9l-17-23.07a1.33,1.33,0,0,0-.89-.7V329.9Z"/><path class="cls-5" d="M551,305.82s-.22-.3-3.1,4c0,0,2.05,1.42,3.09,1.25a21.82,21.82,0,0,0,3.21-1.1A31.56,31.56,0,0,0,551,305.82Z"/></g><path class="cls-7" d="M731.31,343,708.45,399.6H503.08V331.19c.49-.19,2.81.17,3.31,0,13.91-4.86,29.57-5.65,44.56-3.62,6.32.85,19.81,2.21,29.91,3,3.51.27,6.61.46,8.86.54,2.61.09,5.11.08,7.52,0,2.79-.1,5.47-.29,8.1-.54,9.9-.92,19-2.65,30.38-2.89,24.3-.5,39.63-.09,64.36,2.89C720,333,730.66,342.87,731.31,343Z"/><path class="cls-7" d="M506.69,331.19V399.6H303.06V332.7c.8.39,2.82-1.29,3.29-1.51,14.36-7,29.14-6.63,44-4.6,6.26.85,19.64,2.21,29.65,3,3.48.26,6.55.45,8.78.53,2.6.09,5.07.08,7.46,0,2.77-.1,5.43-.29,8-.53,9.82-.93,18.85-2.65,30.13-2.89,24.09-.51,39.36-.55,63.81,2.89,3.48.49,4.41,1.58,5.18,1.62C504.82,331.25,506.05,331.11,506.69,331.19Z"/><path class="cls-8" d="M546.33,326.53c.08.05,18.78,11.4,20.49,11.83a113.63,113.63,0,0,0,17.72,2.69c8.4.81,15.4.25,23.76,1.46,13.52,2,22.59,2.73,35.63-1.85,7.29-2.56,26.68-7.83,33.61-11.39.52-.27,1.31-.49,3.74-.22,1.14.12,2.67.33,4.68.56.83.09,1.73.26,2.74.37,2.21.43-11.11,6.1-12,6.82-3.79,3.14-12.24,4.44-16.5,6.64-8.52,4.39-13,6.77-22.31,7.58-13,1.13-18.71,1.55-31.92.46-12.34-1-18.71-2.14-31-3.61-7.26-.87-21.27-2.95-26.49-8.86-1.79-2-12.68-8.63-12.08-11.44A61.16,61.16,0,0,1,546.33,326.53Z"/><path class="cls-3" d="M80.26,363.66l141.29.27s0-.54,0-14.32c-3.28-1.12-18.42-26.64-37.73-22.09-21.38,5-36,20.48-46.78,7-2.06-2.55-7.91-5.6-18.47-4.41-2.43.28-5.31,3.08-8.71-.7-3.92-4.37-10.41-4-16.42-3.8-6.74.22-9.33.59-14.68,5.06-8,6.72-13.39,14.93-19,18.7C51.51,354.86,80.26,363.66,80.26,363.66Z"/><path class="cls-7" d="M307.42,399.6H0L-.11,326c.74-.14,50.2,14.21,72.65,15.83,9.44.67,29.64,1.75,44.76,2.36,5.25.21,9.9.36,13.26.42,3.92.08,7.65.07,11.26,0,4.18-.07,8.2-.22,12.12-.42,14.83-.74,28.47-2.11,45.49-2.3,36.36-.4,55.31-8,92.31-5.59,5.86.39,13.58-5.22,14.61-5.07C308.33,331.48,307.42,399.6,307.42,399.6Z"/><path class="cls-8" d="M422.31,328.79c-3.79,1.72-15.36,7.55-20.15,9.88-5.85,2.85-8.85,13.67-11,17.26-2.52,4.29-7.08,4.78-10.23,7.94-3.76,3.78-11.73,30.82-14.13,35.73H350.41c-2.52,0,11.43-33.74,12.06-34.68A26.58,26.58,0,0,1,374.09,355c2.45-1,5-1.5,7.42-2.65a11.5,11.5,0,0,0,5.95-6.05c1.29-3.22,1.2-7.47,3.21-9.95a8,8,0,0,1,3.34-2.2,57.46,57.46,0,0,1,11.83-3.52,19.79,19.79,0,0,1,4.67-.67c1.57,0,6.18-.72,7.7-.7"/><g class="cls-9"><rect class="cls-10" x="344.12" y="323.24" width="2.39" height="21.95" transform="translate(-39.1 45.83) rotate(-7.19)"/><ellipse class="cls-10" cx="343.9" cy="323.02" rx="1.2" ry="1.7" transform="translate(-37.71 45.57) rotate(-7.19)"/><rect class="cls-7" x="344.2" y="324.76" width="0.63" height="6.21" transform="translate(273.35 -142.37) rotate(37.81)"/><rect class="cls-7" x="344.51" y="327.16" width="0.63" height="6.21" transform="translate(274.88 -142.05) rotate(37.81)"/></g><path class="cls-11" d="M475.39,324.33s-31.59-15.89-55.46-37"/><path class="cls-12" d="M465.85,320a.49.49,0,0,1-.4-.55c.07-.23.21-.29.49-.21"/><path class="cls-12" d="M446.29,308a.48.48,0,0,1-.39-.55c.06-.23.2-.29.48-.21"/><path class="cls-12" d="M425.26,292.68a.48.48,0,0,1-.39-.55c.06-.23.2-.29.48-.21"/><polygon class="cls-10" points="462.19 322.19 463.53 324.05 467.97 324.05 469.2 322.19 462.19 322.19"/><polygon class="cls-7" points="469.2 322.19 467.86 319.72 463.43 319.72 462.19 322.19 469.2 322.19"/><polygon class="cls-13" points="462.79 321.76 464.46 321.76 464.46 320.14 463.63 320.14 462.79 321.76"/><polygon class="cls-13" points="468.56 321.76 466.89 321.76 466.89 320.14 467.73 320.14 468.56 321.76"/><rect class="cls-13" x="464.87" y="320.14" width="1.62" height="1.62"/><polygon class="cls-10" points="442.64 310.24 443.98 312.1 448.41 312.1 449.65 310.24 442.64 310.24"/><polygon class="cls-7" points="449.65 310.24 448.31 307.77 443.87 307.77 442.64 310.24 449.65 310.24"/><polygon class="cls-13" points="443.24 309.81 444.91 309.81 444.91 308.19 444.07 308.19 443.24 309.81"/><polygon class="cls-13" points="449.01 309.81 447.33 309.81 447.33 308.19 448.17 308.19 449.01 309.81"/><rect class="cls-13" x="445.32" y="308.19" width="1.62" height="1.62"/><polygon class="cls-10" points="421.6 295.07 422.94 296.92 427.38 296.92 428.62 295.07 421.6 295.07"/><polygon class="cls-7" points="428.62 295.07 427.28 292.59 422.84 292.59 421.6 295.07 428.62 295.07"/><polygon class="cls-13" points="422.21 294.64 423.88 294.64 423.88 293.01 423.04 293.01 422.21 294.64"/><polygon class="cls-13" points="427.98 294.64 426.3 294.64 426.3 293.01 427.14 293.01 427.98 294.64"/><rect class="cls-13" x="424.28" y="293.01" width="1.62" height="1.62"/><rect class="cls-10" x="475.85" y="324.56" width="7.93" height="3.85"/><path class="cls-14" d="M475.85,327.25c2.64-.26,5.29,0,7.93-.07a0,0,0,0,0,0-.05c-2.64.07-5.29-.19-7.93.06,0,0,0,.06,0,.06Z"/><path class="cls-14" d="M475.85,326.2c2.64-.25,5.29,0,7.93-.07a0,0,0,1,0,0-.07c-2.64.07-5.29-.19-7.93.06-.05,0-.05.08,0,.08Z"/><path class="cls-14" d="M475.85,325.27c2.64-.14,5.29-.16,7.93-.07a.05.05,0,0,0,0-.1c-2.64-.08-5.29-.06-7.93.07-.06,0-.06.1,0,.1Z"/><path class="cls-7" d="M484.38,324.59c-1.71,0-3.42,0-5.13,0-.83,0-1.65.05-2.47.08a4.71,4.71,0,0,1-1.3,0c-.53-.13-.11-.49.12-.65.53-.36.5-1,.73-1.56a1.69,1.69,0,0,1,1.66-.92c1.33-.09,2.67-.23,4-.23.62.15,1,.74,1.32,1.2a9.44,9.44,0,0,1,1.08,1.84c.07.14.1.35-.05.42a.3.3,0,0,1-.13,0l-8.63-.08a.26.26,0,0,1-.24-.09c0-.07,0-.16.05-.23l1.51-2.51a.67.67,0,0,1,.23-.27.77.77,0,0,1,.43-.08h2.94c.46,0,.93,0,1.39,0,.1,0,.62-.09.67,0Z"/><path class="cls-7" d="M484.38,324.37c-1.81,0-3.63-.05-5.44,0-.63,0-2.29.41-2.81.1s-.16-.71.13-1.1c.72-1-.78.21.93-1.07a2.4,2.4,0,0,1,1.8-.66,7.24,7.24,0,0,1,3,.06,3.92,3.92,0,0,1,2,2.24c.25.8.23.43-.48.58a9,9,0,0,1-1.8,0c-.83,0-5.74.35-5.81-.55s1.69-2.1,2.27-2.25a11.62,11.62,0,0,1,2.7,0c.33,0,1.31-.18,1.58,0s.46.78.59,1l1.17,2a.22.22,0,0,0,.38-.22c-.63-1.07-1.18-3.08-2.47-3.24a23.29,23.29,0,0,0-2.77,0,5.72,5.72,0,0,0-2.26.08c-.71.35-1.79,2.45-1.93,3.17a.21.21,0,0,0,.15.26c1.19.43,3,.12,4.24.13l2.52,0c.47,0,1.9.25,2.29,0,.88-.56-.46-2.05-.84-2.58-1.35-1.87-3.41-1.37-5.51-1.08-1.77.24-2.18,1.54-2.95,3.05a.21.21,0,0,0,.08.29c.9.68,2.76.2,3.82.18,1.81,0,3.63,0,5.44,0A.22.22,0,0,0,484.38,324.37Z"/><rect class="cls-15" x="446.13" y="336.72" width="0.51" height="3.71" rx="0.25" ry="0.25"/><path class="cls-16" d="M441.55,337.37c-.39.1,9.17,0,9.17,0a13.76,13.76,0,0,1-3.46-7.91h1.67s-1.79-1-2.8-7.12c0,0-.31,4.9-2.62,6.83l1.56.12S443.91,336.74,441.55,337.37Z"/><polyline class="cls-16" points="649.7 330.06 618.51 330.06 618.51 285.54 649.7 285.54 649.7 330.06"/><path class="cls-7" d="M653.2,285.65H638.11q-10.68,0-21.37,0a4,4,0,0,1-1.73-.14c-1.27-.64.15-1.83,1-2.29a5.46,5.46,0,0,0,1.09-.66,3.75,3.75,0,0,0,.9-1.89,19,19,0,0,1,2.63-5.55,2.71,2.71,0,0,1,.76-.82,2.9,2.9,0,0,1,1.27-.35c4.18-.5,8.38-.72,12.59-.94l5.62-.29a7.53,7.53,0,0,1,4.39.67,7.68,7.68,0,0,1,2,2.12l4.44,6.26a7.58,7.58,0,0,1,1.75,3.79.9.9,0,0,1-.28.81,1,1,0,0,1-.75,0,37.26,37.26,0,0,0-7.54-.42l-4,.05-6.45.08c-1,0-2,0-3,.09-.6.05-1.19.12-1.79.12a17.19,17.19,0,0,1-1.9-.17A82.22,82.22,0,0,0,617,285.8c-1.41,0-2.71.26-1.74-1.4.43-.75,1-1.45,1.46-2.16l5.82-8.63s.05-.08.06-.08h22.95Z"/><path class="cls-7" d="M653.2,285.15H623.06c-1.92,0-4.47.45-6.32,0-.62-.16-.44.3-.94-.45s-.17-.48.41-1.05c.32-.31.86-.41,1.2-.73.89-.87,1-2.26,1.44-3.37.75-2,1.74-4.57,4-5.11a39.79,39.79,0,0,1,6.55-.6c3.93-.26,7.88-.5,11.82-.63,3.06-.1,4.39,1,6.1,3.33q1.82,2.54,3.61,5.09a8.12,8.12,0,0,1,1.53,2.53c.16.72.17,1.39-.9,1.61a2.3,2.3,0,0,1-.6-.07c-1.94.2-4.17-.23-6.14-.21-4,0-7.93,0-11.89.15s-8-.32-12-.36c-1,0-4.78.55-5.14-.29s2.4-4,3-4.85l3.18-4.7c.27-.41,1.49-1.68.69-1.41.08,0,.19,0,.27,0,2.76-.42,5.93,0,8.72,0h11.5a11.88,11.88,0,0,0,1.79,0c.55-.08.77.23.24-.23.85.74,1.46,2.31,2.06,3.25l5.59,8.85c.35.54,1.21,0,.87-.51l-6.16-9.73c-.44-.7-1-2.22-1.8-2.61s-2.2,0-2.92,0H628.53c-1.75,0-3.55-.12-5.29,0s-2,1.66-3,3.08c-1.33,2-2.63,3.93-4,5.88-.55.79-2.26,2.46-1.81,3.61.24.62.81.67,1.39.73,2.28.24,4.71-.09,7,0s4.83.54,7.23.49c2.66-.06,5.32-.21,8-.24l6.72-.08c1.26,0,2.52,0,3.79,0a33.63,33.63,0,0,0,3.94.43c2.54-.21.81-3.48,0-4.72-1.27-2-2.73-3.87-4.1-5.79-1-1.42-2-3.09-3.64-3.8a10.14,10.14,0,0,0-4.45-.38c-2.53.12-5.05.25-7.58.39s-4.85.28-7.26.5c-1.34.13-3.35,0-4.52.81-1.47,1-2.35,3.34-3,4.92s-.68,2.64-2,3.77c-.55.45-1.23.65-1.63,1.3-1.74,2.81,3.67,2.21,4.81,2.21q17,0,34,0A.5.5,0,0,0,653.2,285.15Z"/><path class="cls-17" d="M618.63,310.77c10.13-2.07,20.44.11,30.65-.51.15,0,.15-.24,0-.23-8,.48-16.09-.77-24.14-.31a45.37,45.37,0,0,0-6.57.82c-.14,0-.08.26.06.23Z"/><path class="cls-17" d="M618.72,316.34l30.75.27a.12.12,0,0,0,0-.23l-30.75-.27c-.15,0-.15.23,0,.23Z"/><path class="cls-17" d="M618.49,321.28a137.18,137.18,0,0,0,31,1.21c.15,0,.15-.24,0-.23a136.64,136.64,0,0,1-30.91-1.2c-.15,0-.21.2-.06.22Z"/><path class="cls-17" d="M618.51,305.62a244.31,244.31,0,0,1,30.85-.41c.15,0,.15-.22,0-.23a246.2,246.2,0,0,0-30.85.4c-.15,0-.15.25,0,.24Z"/><path class="cls-17" d="M618.63,294.24c10.13-2.07,20.44.1,30.65-.51.15,0,.15-.24,0-.23-8,.48-16.09-.77-24.14-.32a46.83,46.83,0,0,0-6.57.83c-.14,0-.08.26.06.23Z"/><path class="cls-17" d="M618.72,299.81l30.75.27a.12.12,0,0,0,0-.23l-30.75-.28a.12.12,0,0,0,0,.24Z"/><path class="cls-17" d="M618.51,289.08a246.2,246.2,0,0,1,30.85-.4c.15,0,.15-.23,0-.23a244.31,244.31,0,0,0-30.85.4c-.15,0-.15.25,0,.23Z"/><path class="cls-18" d="M624.17,297.6c0-3.94,1.29-7.14,2.88-7.14s2.87,3.2,2.87,7.14"/><line class="cls-19" x1="627.05" y1="290.46" x2="627.05" y2="297.9"/><line class="cls-20" x1="629.57" y1="294.32" x2="624.48" y2="294.32"/><path class="cls-7" d="M625.57,294.25c.31-.55.68-2.19,1.38-2.35s1.27,1.59,1.57,2.07c.69,1.08,2.42.08,1.73-1-.83-1.31-1.42-3.22-3.35-3.07s-2.3,2-3.06,3.35a1,1,0,0,0,1.73,1Z"/><path class="cls-7" d="M624,298.4a35.48,35.48,0,0,1,5.74,0c.72.06.72-1.07,0-1.13a35.48,35.48,0,0,0-5.74,0c-.72.05-.73,1.19,0,1.13Z"/><path class="cls-18" d="M638.11,297.91c0-4,1.29-7.15,2.88-7.15s2.87,3.2,2.87,7.15"/><line class="cls-19" x1="640.99" y1="290.76" x2="640.99" y2="298.2"/><line class="cls-20" x1="643.51" y1="294.63" x2="638.42" y2="294.63"/><path class="cls-7" d="M644.34,294.25c-.29-1.57-.92-3.58-2.64-4.08a2.81,2.81,0,0,0-3.46,1.89c-.2.89,1.09,1.54,1.54.64.06-.12.11-.26.17-.39.15-.3.42-.49,0-.2l-1-.13,0,0-.25-.6a3.38,3.38,0,0,1-.63,1.75c-.67.84.52,2,1.19,1.19s1.63-2.65.86-3.55a.85.85,0,0,0-1-.14,2.73,2.73,0,0,0-.77,1.2l1.54.65c.22-.93,1.45-.91,2-.29a5.61,5.61,0,0,1,.89,2.49c.2,1.07,1.82.62,1.63-.45Z"/><path class="cls-7" d="M638.21,298.51a22.29,22.29,0,0,1,5.29.06c.72.1.71-1,0-1.13a22.29,22.29,0,0,0-5.29-.06c-.71.08-.72,1.21,0,1.13Z"/><path class="cls-7" d="M639.42,294c.11-.38.17-1.34.48-1.63s1.2,0,1.51.09.45.52.69.81a1.75,1.75,0,0,1,.51,1.51c0,1.28,2,1.28,2,0a3.6,3.6,0,0,0-.9-2.72c-.29-.33-.48-.75-.79-1.06a2.46,2.46,0,0,0-1.45-.55,3.42,3.42,0,0,0-2.65.17c-.89.63-1.06,1.88-1.33,2.85a1,1,0,0,0,1.93.53Z"/><path class="cls-10" d="M587.65,332.27H571.22a2.88,2.88,0,0,1-2.88-2.89V284.14h19.31v48.13Z"/><polygon class="cls-10" points="587.65 284.37 568.34 284.37 577.99 269.11 587.65 284.37 587.65 284.37"/><path class="cls-7" d="M588.4,284.8l-9.65-16.14a.92.92,0,0,0-1.51,0l-9.65,16.14a.87.87,0,0,0,.3,1.2.89.89,0,0,0,.45.12.87.87,0,0,0,.75-.42l8.9-14.88,8.9,14.88a.89.89,0,0,0,1.21.3.88.88,0,0,0,.3-1.2"/><path class="cls-21" d="M581.28,284.83a3.53,3.53,0,0,0-.73-2l-1.89,2Z"/><path class="cls-21" d="M579.5,281.93h0l-.22-.11,0,0-.28-.11h0l-.28-.08h-.05a1.35,1.35,0,0,0-.29,0h-.14v3.12l2-2.17a3.51,3.51,0,0,0-.76-.57"/><path class="cls-21" d="M577.39,284.83,575.64,283l-.18-.18a3.54,3.54,0,0,0-.75,2h2.68Z"/><polygon class="cls-21" points="578.21 291.21 581.29 291.21 581.29 288.33 578.21 288.33 578.21 291.21 578.21 291.21"/><polygon class="cls-21" points="578.21 287.89 581.29 287.89 581.29 285.27 578.21 285.27 578.21 287.89 578.21 287.89"/><path class="cls-21" d="M575.92,282.65l1.85,2v-3.05a3.24,3.24,0,0,0-2,.92l.16.18Z"/><polygon class="cls-21" points="574.7 288.33 574.7 291.21 574.9 291.21 574.92 291.21 577.77 291.21 577.77 288.33 574.92 288.33 574.7 288.33 574.7 288.33"/><polygon class="cls-21" points="574.7 285.27 574.7 287.89 574.92 287.89 577.77 287.89 577.77 285.27 574.92 285.27 574.7 285.27 574.7 285.27"/><path class="cls-14" d="M581.29,287.89h-3.08v-2.62h3.08v2.62Zm0,3.32h-3.08v-2.88h3.08v2.88Zm-.74-8.38a3.6,3.6,0,0,1,.73,2h-2.62l1.89-2Zm.09-.68a2.63,2.63,0,0,0-.38.36h0l-2,2.17v-3.09h-.44v3l-1.85-2-.16-.18c-.1.11-.2.21-.29.33l.17.18,1.75,1.85h-2.65v.44h3v2.62h-3v.44h3v2.88H574.7v0l-.5.42h7.59v-6.73a3.81,3.81,0,0,0-1.15-2.72"/><path class="cls-14" d="M580.63,282.15a3.35,3.35,0,0,0-.86-.63h0l-.31-.15h-.05a2.09,2.09,0,0,0-.3-.11l-.09,0-.26-.06-.18,0-.19,0-.39,0a3.8,3.8,0,0,0-3.79,3.8v0h0v6.72l.5-.43,0,0v-6.32a3.38,3.38,0,0,1,.26-1.23v0l.12-.24,0,0a2.8,2.8,0,0,1,.33-.49c.09-.12.19-.22.29-.33a3.23,3.23,0,0,1,2-.89h.44a3.17,3.17,0,0,1,2,.92h0a2.63,2.63,0,0,1,.38-.36h0"/><polygon class="cls-22" points="567.96 297.32 588.03 297.32 588.03 298.12 567.96 298.12 567.96 297.32 567.96 297.32"/><polygon class="cls-23" points="567.54 296.51 588.45 296.51 588.45 297.33 567.54 297.33 567.54 296.51 567.54 296.51"/><polygon class="cls-24" points="587.97 298.46 568.01 298.46 568.01 298.12 587.97 298.12 587.97 298.46 587.97 298.46"/><polygon class="cls-24" points="567.96 297.32 588.03 297.32 588.03 297.66 567.96 297.66 567.96 297.32 567.96 297.32"/><path class="cls-7" d="M574.81,291.65l.29-.23-.82-.47c.28,1.19,1.45.88,2.38.82a39.71,39.71,0,0,1,4.88.11.67.67,0,0,0,.18-1.31,9,9,0,0,0-3.93-.27c-1.28.16-2.52-.25-3.71.34-.77.38-.09,1.54.68,1.16s2.1,0,3-.15a8.16,8.16,0,0,1,3.61.21l.18-1.31c-.58,0-6-.3-6,.05a.67.67,0,0,0-.82-.47,1.74,1.74,0,0,0-1.1.85c-.45.74.71,1.41,1.16.67Z"/><path class="cls-7" d="M568.86,286.65c1.82-1.93,1.79-4.61,3.45-6.63.67-.82,1.57-1.34,2.07-2.32.83-1.62.66-3.42,1.63-5.06a9,9,0,0,1,.91-1.28c.42-1.07.81-1.05,1.18.06.74.7.62,1.44.9,2.31a16.64,16.64,0,0,0,1.38,3.39c1.74,3,4.44,5.27,5.62,8.6.63,1.8,3.53,1,2.89-.8-1.44-4.06-5-6.72-6.54-10.64-.92-2.3-1.07-6.75-4.53-6.92-2.51-.12-4.66,3.68-5.35,5.67-.59,1.69-.37,2.67-1.6,4.25-.45.58-1.11,1-1.54,1.6-1.2,1.73-1.13,4.1-2.59,5.65s.79,3.53,2.12,2.12Z"/><polyline class="cls-4" points="622.18 331.55 586.4 331.55 586.4 302.23 622.18 302.23 622.18 331.55"/><path class="cls-7" d="M623.86,302.53H608.78q-10.69,0-21.37,0a4.16,4.16,0,0,1-1.73-.13c-1.28-.65.14-1.84.94-2.3a6.37,6.37,0,0,0,1.1-.65,4,4,0,0,0,.9-1.89,18.55,18.55,0,0,1,2.63-5.56,2.77,2.77,0,0,1,.75-.81,3.1,3.1,0,0,1,1.27-.36c4.18-.5,8.39-.72,12.59-.93l5.62-.29a7.43,7.43,0,0,1,4.39.67,7.36,7.36,0,0,1,2,2.11l4.45,6.26a7.65,7.65,0,0,1,1.74,3.79.86.86,0,0,1-.27.81,1,1,0,0,1-.76.05,37.22,37.22,0,0,0-7.54-.42l-4,0-6.45.08c-1,0-2,0-3,.1-.59,0-1.19.11-1.79.11a17.21,17.21,0,0,1-1.89-.16,79,79,0,0,0-10.77-.36c-1.41,0-2.7.26-1.74-1.41.44-.74,1-1.44,1.46-2.16l5.83-8.62a.22.22,0,0,1,0-.08h23Z"/><path class="cls-7" d="M623.86,302H593.72c-1.92,0-4.46.44-6.31,0-.63-.15-.45.3-.95-.45s-.17-.48.41-1c.32-.32.87-.42,1.2-.74.89-.87,1-2.26,1.44-3.37.76-2,1.74-4.57,4-5.11a40.9,40.9,0,0,1,6.55-.59c3.93-.27,7.88-.51,11.82-.64,3.07-.1,4.4,1,6.1,3.34,1.22,1.69,2.42,3.39,3.62,5.08a8.24,8.24,0,0,1,1.53,2.53c.16.72.17,1.39-.91,1.62a1.85,1.85,0,0,1-.6-.08c-1.93.2-4.16-.22-6.14-.2-4,0-7.93,0-11.88.15s-8-.33-12-.37c-1,0-4.78.56-5.14-.29s2.4-4,3-4.85l3.18-4.7c.27-.41,1.49-1.67.7-1.4.07,0,.18,0,.26,0,2.77-.43,5.93,0,8.72,0h11.5a13.51,13.51,0,0,0,1.8,0c.54-.09.76.22.24-.23.84.73,1.46,2.31,2.05,3.24l5.6,8.85c.34.55,1.21,0,.86-.5l-6.16-9.74c-.44-.7-1-2.22-1.8-2.6s-2.19,0-2.92,0H599.19c-1.75,0-3.54-.13-5.29,0s-2,1.66-3,3.07c-1.32,2-2.63,3.93-4,5.88-.55.8-2.26,2.47-1.81,3.62.24.61.81.66,1.39.72,2.28.24,4.71-.09,7,0s4.83.54,7.23.49c2.66-.06,5.32-.2,8-.23l6.72-.08c1.26,0,2.53,0,3.79,0a33.57,33.57,0,0,0,4,.43c2.53-.21.8-3.48,0-4.72-1.28-2-2.74-3.86-4.11-5.79-1-1.42-2-3.08-3.64-3.8a10.13,10.13,0,0,0-4.45-.38l-7.57.39c-2.43.14-4.85.28-7.27.51-1.33.12-3.34,0-4.52.8-1.46,1-2.34,3.34-2.95,4.92s-.69,2.65-2.05,3.77c-.55.46-1.23.65-1.63,1.31-1.73,2.8,3.68,2.2,4.81,2.2,11.35,0,22.69,0,34,0A.5.5,0,0,0,623.86,302Z"/><path class="cls-17" d="M586.4,312.27c9.11-1.62,18.37-.63,27.55-.42,2.59.06,5.18,0,7.77-.08.16,0,.16-.26,0-.25-9.27.48-18.52-.76-27.79-.32a62.4,62.4,0,0,0-7.6.83c-.15,0-.09.27.07.24Z"/><path class="cls-17" d="M586.5,317.84l27.58.22,7.86.06a.13.13,0,0,0,0-.25l-27.58-.22-7.86-.06a.13.13,0,0,0,0,.25Z"/><path class="cls-17" d="M586.27,322.79a180.44,180.44,0,0,0,27.78,1.55q3.94-.09,7.88-.34c.16,0,.17-.27,0-.25a182,182,0,0,1-27.82-.33c-2.62-.24-5.24-.53-7.84-.88-.16,0-.16.23,0,.25Z"/><path class="cls-17" d="M586.26,307.12q13.85-.92,27.73-.65,3.91.07,7.83.25a.13.13,0,0,0,0-.25q-13.86-.6-27.73,0-3.92.17-7.83.42c-.16,0-.16.26,0,.25Z"/><path class="cls-18" d="M601.59,312.48c0-4,1.28-7.14,2.87-7.14s2.87,3.19,2.87,7.14"/><line class="cls-19" x1="604.46" y1="305.34" x2="604.46" y2="312.78"/><line class="cls-20" x1="606.98" y1="309.2" x2="601.9" y2="309.2"/><path class="cls-7" d="M607.81,308.83c-.31-1.63-1-3.67-2.77-4.12a2.88,2.88,0,0,0-3.35,2l.39-.5h0l1.27.73c0,.17,0,0,0,0l-1.54.2c-.25-.38,0-.27-.14,0a5.78,5.78,0,0,0-.11.6,3,3,0,0,1-.39,1.09c-.64.87.82,1.72,1.45.85.48-.66,1.14-2.67.65-3.43a.85.85,0,0,0-1.54.2,1.43,1.43,0,0,0-.09.5.85.85,0,0,0,1.27.73c.63-.44.62-1.5,1.68-1.3s1.42,2,1.59,2.95,1.83.61,1.63-.45Z"/><path class="cls-7" d="M601.68,313.08a22.83,22.83,0,0,1,5.29.07c.72.09.71-1,0-1.13a22.83,22.83,0,0,0-5.29-.07c-.71.08-.72,1.21,0,1.13Z"/><path class="cls-18" d="M591.89,321.76c0-3.95,1.29-7.15,2.88-7.15s2.87,3.2,2.87,7.15"/><line class="cls-19" x1="594.77" y1="314.61" x2="594.77" y2="322.05"/><line class="cls-20" x1="597.29" y1="318.48" x2="592.2" y2="318.48"/><path class="cls-7" d="M593.15,318.32c.29-.5.48-1,.73-1.55.15-.3.5-1.11.84-1.21.53-.16,1.41,2.09,1.66,2.49.58.91,2,.06,1.46-.86-.73-1.14-1.41-3.56-3.16-3.39s-2.28,2.44-3,3.67a.84.84,0,0,0,1.45.85Z"/><path class="cls-7" d="M591.67,322.55a34.38,34.38,0,0,1,5.74,0c.72.06.72-1.07,0-1.13a34.38,34.38,0,0,0-5.74,0c-.72.06-.72,1.19,0,1.13Z"/><path class="cls-18" d="M611.27,322.06c0-3.95,1.29-7.15,2.88-7.15s2.87,3.2,2.87,7.15"/><line class="cls-19" x1="614.15" y1="314.91" x2="614.15" y2="322.36"/><line class="cls-20" x1="616.67" y1="318.78" x2="611.58" y2="318.78"/><path class="cls-7" d="M617.5,318.41c-.28-1.5-.85-3.39-2.4-4a2.81,2.81,0,0,0-3.6,1.57l1.45.85.32-.68-1.57-.43a2.9,2.9,0,0,1-.61,1.75c-.64.89.83,1.73,1.46.86a4.43,4.43,0,0,0,.83-2.61.85.85,0,0,0-1.57-.42c-.1.22-.21.45-.31.68-.45,1,1,1.84,1.45.85.39-.84,1.31-1.35,2-.47a5.59,5.59,0,0,1,.9,2.5c.19,1.06,1.82.61,1.63-.45Z"/><path class="cls-7" d="M611.37,322.66a22.83,22.83,0,0,1,5.29.07c.72.09.71-1,0-1.13a22.83,22.83,0,0,0-5.29-.07c-.71.08-.72,1.21,0,1.13Z"/><path class="cls-7" d="M668.53,314.21c-6.35,0-12.7-.17-19-.1-3.06,0-6.11.17-9.16.3a16,16,0,0,1-4.84-.14c-1.94-.5-.4-1.86.47-2.49,1.95-1.41,1.86-4,2.7-6,1.1-2.66,3.46-3.4,6.14-3.58,4.94-.33,9.93-.86,14.85-.86,2.3.55,3.65,2.83,4.92,4.62a38.74,38.74,0,0,1,4,7.1c.25.56.38,1.39-.18,1.64a1,1,0,0,1-.49.06l-32-.29c-.33,0-.72,0-.87-.33a1,1,0,0,1,.16-.89l5.61-9.73a3,3,0,0,1,.84-1,3,3,0,0,1,1.63-.31l10.9,0c1.71,0,3.44.06,5.15,0,.38,0,2.3-.36,2.5,0Z"/><path class="cls-7" d="M668.53,313.74c-6.19,0-12.38-.16-18.57-.1-2.91,0-5.82.13-8.72.26-1.25.06-2.51.19-3.75.15-1,0-2.58.28-1.92-1.36.11-.28,1-.83,1.23-1,1.19-1.26,1.41-2.91,1.88-4.51,1.07-3.58,3.66-4.31,7-4.57,2.79-.2,5.57-.45,8.36-.61a31.37,31.37,0,0,1,4.64-.18c2.32.22,3.37,1.5,4.66,3.27a30.14,30.14,0,0,1,4.22,7l.19.41c.69,1.55.4,2.15-.87,1.82a10.5,10.5,0,0,1-1.94,0l-5.34-.05L640.72,314c-1.29,0-3.17.35-4.37,0-1.44-.48,0-1.93.61-2.94l2.33-4.06c1-1.76,1.68-3.83,3.94-4.36,1.41-.33,3.5,0,4.95,0h4c2.63,0,5.27.12,7.9-.08,1.58-.11,1.4,0,2.13,1.28l2.33,4.16c1.21,2.15,2.41,4.3,3.62,6.44.29.53,1.1.06.8-.47l-4.55-8.11a19.65,19.65,0,0,0-2.09-3.73c-.8-.84-1.73-.51-2.86-.43-3.88.27-7.86,0-11.74,0-2.31,0-5.6-.85-7.15,1.28a51,51,0,0,0-2.75,4.75c-1,1.67-2.57,3.63-3.14,5.49s1.25,1.7,2.67,1.71l24.75.23c1.82,0,4.31.5,6.07,0,.45-.13.75-.17,1-.66.34-.67-.09-1.52-.35-2.13a34.06,34.06,0,0,0-2.8-5.18c-1.35-2.1-3-5.1-5.44-6.08a8.88,8.88,0,0,0-3.67-.23c-2.17.08-4.34.23-6.5.39-5.26.4-11-.14-12.67,6a9.49,9.49,0,0,1-1.21,3.27A15.3,15.3,0,0,1,634.9,312c-.38.4-.88.92-.8,1.52.26,2.24,5.34,1.37,6.68,1.31,9.25-.43,18.49-.2,27.75-.19A.47.47,0,0,0,668.53,313.74Z"/><rect class="cls-10" x="636.86" y="314.1" width="29.45" height="14.9"/><path class="cls-14" d="M636.86,324.43c9.79-1,19.63.05,29.44-.25.08,0,.08-.12,0-.11-9.81.3-19.65-.79-29.44.25-.07,0-.07.12,0,.11Z"/><path class="cls-14" d="M636.86,320.36c9.79-1,19.63.05,29.44-.25a.08.08,0,1,0,0-.16c-9.81.3-19.65-.76-29.44.25-.1,0-.1.17,0,.16Z"/><path class="cls-14" d="M636.86,316.75q14.7-.79,29.44-.27a.11.11,0,1,0,0-.21q-14.71-.51-29.44.28c-.13,0-.14.21,0,.2Z"/><path class="cls-25" d="M660.81,298.4c-.51-.52-.55-3.26-.67-4.09-.6-4.21-.63-9.67-2.67-13.2a71.19,71.19,0,0,0-7.17-10.25c-2.36-2.78-3.69-5.46-1.73-9.26,2.23-4.36,6.36-8.19,5.5-14.1-.51-3.49-3-6.65-2.19-10.05a8.07,8.07,0,0,1,1.48-2.87c1.48-2,5.18-6.83,8.15-5.55A7.12,7.12,0,0,1,664,231.2c1.43,1.71,2.95,3.94,2.06,6a9.28,9.28,0,0,1-2.37,2.6c-2.45,2.35-3.39,5.92-3.39,9.32,0,5.78,3.75,12.86.62,18.29-.7,1.21-1.68,2.32-1.89,3.7-.37,2.4,1.59,3.59,2.32,5.56.82,2.22.6,4.33.63,6.64,0,3.25.73,6.41.94,9.64C663,294.1,663.29,301,660.81,298.4Z"/><path class="cls-18" d="M648.11,329.08c0-5.1,1.55-9.23,3.47-9.23s3.47,4.13,3.47,9.23"/><polyline class="cls-26" points="660 303.35 660 298.43 663.27 298.43 663.27 308.93"/><path class="cls-7" d="M608.07,345.84c-2.26.05-4.59.06-7,0Z"/><path class="cls-27" d="M680.07,319.13c0,4.88-2,6.83-4.53,6.83S671,324,671,319.13s2-13.87,4.53-13.87,4.53,9,4.53,13.87"/><path class="cls-28" d="M675.54,326h0l.43,0h0l-.43,0"/><path class="cls-28" d="M675.52,326h0m0,0h0m0,0h0m0,0h0m0,0h0m0,0h0m0,0h0m0,0h0"/><path class="cls-29" d="M675.54,326h-.13a3.94,3.94,0,0,1-3.59-2.44,3.94,3.94,0,0,0,2.3.69c2.5,0,4.52-1.94,4.52-6.82,0-3.48-1-9.05-2.52-12a3,3,0,0,1,.94.94,15.41,15.41,0,0,1,1.77,4.33h0v0h0a35.73,35.73,0,0,1,1.19,7.68h0v0h0v0h0v.08h0v.05h0v0h0c0,3.84-1.26,5.86-3,6.55a4,4,0,0,1-1.09.26l-.43,0"/><path class="cls-7" d="M675.54,305.26c-1,0-2,1.59-2.79,3.78a1,1,0,0,0,.45-.12c.56-.36.79-1.79,1.54-1.64.11.36,0,1.29.43,1.31s.42-.63.68-.88c.12.14.15.44.29.53.31.2.65-.14,1-.07s.65.85,1.19.8c-.76-2.16-1.71-3.71-2.75-3.71Z"/><polygon class="cls-30" points="676.11 329.56 675.51 329.56 675.51 319.53 676.11 319.53 676.11 329.56 676.11 329.56"/><polygon class="cls-30" points="675.86 322.87 675.51 322.38 677.26 321.11 677.61 321.59 675.86 322.87 675.86 322.87"/><polygon class="cls-30" points="676.02 324.14 675.6 324.56 673.47 322.41 673.89 321.99 676.02 324.14 676.02 324.14"/><path class="cls-7" d="M625.57,311.69a5.73,5.73,0,0,1,1-1.68c.26-.21.15-.22.49,0a5.63,5.63,0,0,1,.81.73l1.42-1.41a3.31,3.31,0,0,0-3.58-.87,4.23,4.23,0,0,0-2.23,3.06c-.24,1.26,1.68,1.8,1.93.53s1.24-2.45,2.46-1.31c.94.88,2.33-.49,1.42-1.41s-2-1.88-3.2-1.45-1.8,1.85-2.3,2.79c-.6,1.13,1.13,2.15,1.73,1Z"/><path class="cls-7" d="M612.7,318.11a3.63,3.63,0,0,1,.24-1.22c.19-.4.56-.46,1-.54a1,1,0,0,0,.7-1.23,1,1,0,0,0-1.23-.7,2.92,2.92,0,0,0-2.12,1.39,5.56,5.56,0,0,0-.56,2.3,1,1,0,0,0,1,1,1,1,0,0,0,1-1Z"/><path class="cls-7" d="M612.84,317.3a1.26,1.26,0,0,1,1.84-.51c1,.54.81,1.34,1.15,2.26.45,1.2,2.38.68,1.93-.53a8.87,8.87,0,0,0-.77-2.35,4.37,4.37,0,0,0-2.07-1.47,3.27,3.27,0,0,0-3.8,1.59c-.62,1.13,1.11,2.15,1.72,1Z"/><path class="cls-7" d="M602.7,309.27c0-.92.16-2.9,1.55-2.66s1.59,1.8,1.82,2.82c.28,1.25,2.21.72,1.93-.54-.46-2-1.64-4.38-4.08-4.31s-3.14,2.69-3.22,4.69c-.05,1.28,1.95,1.28,2,0Z"/><g class="cls-31"><rect class="cls-10" x="350.45" y="325.38" width="2.39" height="21.95" transform="matrix(0.99, 0.13, -0.13, 0.99, 47.26, -43.3)"/><ellipse class="cls-10" cx="353.13" cy="325.17" rx="1.7" ry="1.2" transform="translate(-15.63 632.51) rotate(-82.45)"/><rect class="cls-7" x="352.18" y="326.92" width="0.63" height="6.21" transform="translate(400.17 -150.49) rotate(52.55)"/><rect class="cls-7" x="351.86" y="329.31" width="0.63" height="6.21" transform="translate(401.95 -149.3) rotate(52.55)"/></g><rect class="cls-15" x="372.67" y="335.55" width="0.68" height="4.97" rx="0.34" ry="0.34"/><path class="cls-16" d="M366.55,336.41c-.52.14,12.27,0,12.27,0a18.35,18.35,0,0,1-4.63-10.58h2.23s-2.39-1.37-3.74-9.52c0,0-.42,6.55-3.51,9.14l2.08.15S369.71,335.57,366.55,336.41Z"/><rect class="cls-15" x="428.76" y="348.98" width="3.01" height="6.93" rx="0.5" ry="0.5"/><polygon class="cls-16" points="438.01 341 439.73 341 436.57 331.83 438.01 331.83 430.26 314.48 422.52 331.83 423.95 331.83 420.8 341 422.52 341 419.94 350.33 430.26 350.33 440.59 350.33 438.01 341"/><path class="cls-32" d="M432.59,319.7c1.08,8.92,2.35,25.17-2.89,30.63h10.89L438,341h1.72l-3.16-9.17H438Z"/><path class="cls-7" d="M419.6,350.64c7.26.21,14.52,0,21.79-.11a.53.53,0,0,0,0-1c-7.27.15-14.52.33-21.79.11-.67,0-.67,1,0,1.05Z"/><path class="cls-7" d="M422.42,332.38c1.39,0,2.79-.16,4.18-.08a32,32,0,0,0,4,.17c.67-.06,1.34-.43,2-.43,1,0,1.78.62,2.74.63a12.39,12.39,0,0,1,2.51,0c.65.14.94-.87.28-1a5.69,5.69,0,0,0-1.72-.29c-1.64.07-3-.36-4.6-.28a46.61,46.61,0,0,1-4.73.09c-1.63-.07-3.11.19-4.72.16a.53.53,0,0,0,0,1.05Z"/><path class="cls-7" d="M420.65,341.47c1.83,0,3.63-.15,5.45-.11,1.45,0,3,.34,4.46.24,1-.07,1.86-.46,2.84-.47a22.76,22.76,0,0,1,3,.59,8.91,8.91,0,0,0,1.46,0,1.43,1.43,0,0,1,1.6-.05,1.08,1.08,0,0,0,.54.13c.65.11.94-.9.27-1-.52-.09-.82-.39-1.36-.43-1-.07-1.73.49-2.82.27a11.06,11.06,0,0,0-4.4-.26,31.42,31.42,0,0,1-5.57,0c-1.84-.05-3.59.14-5.45.12a.52.52,0,0,0,0,1Z"/><path class="cls-7" d="M420.08,350.37a34.81,34.81,0,0,1,4.68,0,14.71,14.71,0,0,1,3.81,0c.18.05.34.33.58.37.73.13,1.26-.28,2,.25a.51.51,0,0,0,.53,0c1.53-1.09,3.08-.52,4.72-.45.9,0,3.33-.23,3.56.15a.52.52,0,0,0,.9-.53c-1.14-1.91-2.69-.74-4.43-.85a13.51,13.51,0,0,0-3.36.07c-.58.09-1.29.48-1.75.49-1.25,0-2.22-.65-3.43-.75s-2.33.19-3.47.17a28.38,28.38,0,0,0-4.61,0c-.66.09-.38,1.1.28,1Z"/><path class="cls-7" d="M946.35,335.79c-10,4.6-21.3,7.86-27.77,7.79-5.56-.07-13.24-.23-21.93-.44-25-.64-58.41-1.75-74-2.45-37.13-1.68-41.82,4.84-76.51,2.7-23.75-1.47-35.53-7-36.75-6.83L704.09,400H966.51l6.29-70.62Z"/><path class="cls-7" d="M1622.58,331.19c-4.51.24-9.85-.21-14.66-.11-4.14.08-74.72-6.16-110.89-6.16-17.43,0-43.41,5.77-54.26,4.92-25.79-2-52.57-3.51-76.49,1.35-.86.17-4.85-.19-5.7,0V399.6h267.7V331.19Z"/><path class="cls-33" d="M344.87,345.89c.44-.15.75.16,1.19.11a1.94,1.94,0,0,0,.88-.54l-1.26-.33a4.43,4.43,0,0,0,.2.45.77.77,0,0,0,.85.34,3.58,3.58,0,0,1,.8-.1.77.77,0,0,0,.37,0c-.12-.1-.11-.08,0,.07a.76.76,0,0,0,1.18-.15,5.11,5.11,0,0,0,.28-.68c.29-.92-1.16-1.32-1.45-.4l-.12.32,1.17-.15c-.7-.76-1.78-.54-2.67-.35l.85.34-.05-.09a.76.76,0,0,0-1.25-.33,1.61,1.61,0,0,1-.3.21l.58-.07a2.46,2.46,0,0,0-1.69-.1c-.91.31-.52,1.76.4,1.45Z"/><path class="cls-33" d="M348.53,347.69c.29-.07.64.24,1,.2.1,0,.31-.06.37-.16s-.28-.19-.19,0a.78.78,0,0,0,.65.37c.11,0,.25,0,.35,0s.11.08.21.12a1.41,1.41,0,0,0,.76.13c.65-.1,1.2-.36,1.31-1.06.15-.95-1.3-1.35-1.44-.4l-.07.18.45-.34a2.14,2.14,0,0,1-.55.15l.53.22a1.92,1.92,0,0,0-1.55-.47l.65.37a1.26,1.26,0,0,0-2-.46l.57-.07c-.59-.15-.8-.35-1.46-.19-.94.22-.54,1.67.4,1.45Z"/><path class="cls-34" d="M471.1,354.45a6.62,6.62,0,1,1-6.61-6.61,6.61,6.61,0,0,1,6.61,6.61Z"/><path class="cls-34" d="M468.62,346.6a4.14,4.14,0,1,1-4.13-4.14,4.13,4.13,0,0,1,4.13,4.14"/><path class="cls-35" d="M464.83,350.73a.34.34,0,0,1-.34.34.35.35,0,0,1-.35-.34.35.35,0,0,1,.35-.35.35.35,0,0,1,.34.35Z"/><path class="cls-35" d="M464.83,352.11a.34.34,0,0,1-.34.34.35.35,0,0,1-.35-.34.35.35,0,0,1,.35-.35.35.35,0,0,1,.34.35Z"/><path class="cls-35" d="M464.83,353.48a.35.35,0,0,1-.34.35.35.35,0,0,1-.35-.35.35.35,0,0,1,.35-.34.34.34,0,0,1,.34.34Z"/><polygon class="cls-35" points="462.25 339.57 462.25 343.15 466.73 343.15 466.73 339.57 462.25 339.57 462.25 339.57"/><polygon class="cls-36" points="468.28 342.81 460.7 342.81 460.7 343.5 468.28 343.5 468.28 342.81 468.28 342.81"/><path class="cls-37" d="M462.25,347a.62.62,0,1,1,.62-.62.62.62,0,0,1-.62.62"/><path class="cls-37" d="M466.73,347a.62.62,0,1,1,.62-.62.62.62,0,0,1-.62.62"/><path class="cls-35" d="M463.46,345.42a.35.35,0,0,1-.35.35.35.35,0,0,1-.34-.35.34.34,0,0,1,.34-.34.35.35,0,0,1,.35.34Z"/><path class="cls-35" d="M466.21,345.42a.35.35,0,0,1-.34.35.35.35,0,0,1-.35-.35.35.35,0,0,1,.35-.34.34.34,0,0,1,.34.34Z"/><path class="cls-35" d="M464.49,347.4a.89.89,0,0,1-.87-.67l.27-.07a.62.62,0,0,0,1.2,0l.26.07a.88.88,0,0,1-.86.67Z"/><path class="cls-38" d="M462.41,353.55l1.14,0a23.37,23.37,0,0,1-.44-3.24h-1c0,1.09.27,2.16.31,3.25Z"/><path class="cls-10" d="M461,348.83a8.55,8.55,0,0,0,6.92-.1,1.7,1.7,0,0,1,0,1.49,2.65,2.65,0,0,1-1,1,4.9,4.9,0,0,1-4.65.31,3.12,3.12,0,0,1-1.31-1.08,1.68,1.68,0,0,1,0-1.6Z"/><path class="cls-39" d="M462.66,353.91c.12-1.56.19-3.15.31-4.71a3.7,3.7,0,0,1-1-.2c-.28,1.57-.57,3.13-.85,4.7a6.09,6.09,0,0,0,1.54.21Z"/><path class="cls-40" d="M459.63,351.07s0,0,0,0,0,0,0,0Z"/><path class="cls-41" d="M78,334.53a11.27,11.27,0,0,0,5-3,0,0,0,0,0,0-.05,13.16,13.16,0,0,1-5,2.93,0,0,0,0,0,0,.08"/><path class="cls-41" d="M75.41,340.54q2.46-2.22,5-4.29c1.81-1.45,3.56-2.86,5.87-3.38,0,0,0-.06,0-.06-1.93.23-3.5,1.46-5,2.61-2.07,1.61-4,3.31-6,5.09l0,0"/><path class="cls-41" d="M104.18,331.36a18.68,18.68,0,0,0,12.5,7.12.06.06,0,0,0,0-.12,20.94,20.94,0,0,1-12.45-7.07c0-.05-.11,0-.07.07"/><path class="cls-41" d="M106.84,336.76c2.09,2,4.07,4.7,7.14,5,0,0,.06-.07,0-.08-3.08-.61-4.86-3-7.08-5,0,0-.12,0-.07.07"/><path class="cls-42" d="M193.72,329.25a18.65,18.65,0,0,0,12.59,7c.07,0,.09-.11,0-.13a20.82,20.82,0,0,1-12.53-6.92c0-.05-.11,0-.07.07"/><path class="cls-42" d="M196.36,327.08a3.15,3.15,0,0,0,2.3,1.44c.06,0,.06-.07,0-.09a8.86,8.86,0,0,1-1.26-.49,3.72,3.72,0,0,1-1-.88l0,0"/><path class="cls-42" d="M196.44,334.62c2.11,1.94,4.13,4.66,7.2,4.92.05,0,.06-.07,0-.08-3.1-.58-4.91-2.94-7.15-4.91,0,0-.11,0-.07.07"/><path class="cls-41" d="M155.16,341.09c1.32-1.38,3.41-1.75,5.13-2.42a41,41,0,0,0,5.76-2.63.06.06,0,0,0-.06-.11c-2.08.92-4.13,1.91-6.27,2.71-1.6.61-3.48,1-4.62,2.4,0,0,0,.07.06,0"/><path class="cls-41" d="M159.56,340.23a44.9,44.9,0,0,0,6.26-2.25s0-.09,0-.07c-2.06.79-4.12,1.58-6.23,2.26,0,0,0,.07,0,.06"/><polyline class="cls-10" points="1523.29 333.54 1522.56 306.37 1549.15 300.61 1549.15 332.75 1523.29 333.54"/><path class="cls-5" d="M1523.3,331.46a89.11,89.11,0,0,0,14.52-.07c3.15-.18,6.29-.37,9.44-.34a.19.19,0,1,0,0-.37c-3.15,0-6.29.15-9.44.33a89.11,89.11,0,0,1-14.52.07c-.24,0-.24.36,0,.38"/><path class="cls-5" d="M1523.16,327.54l24.17-1.29c.24,0,.24-.39,0-.38l-24.17,1.29c-.24,0-.24.39,0,.38"/><path class="cls-5" d="M1523.31,322.1a123.82,123.82,0,0,1,24.5.1c.24,0,.23-.36,0-.38a124.58,124.58,0,0,0-24.5-.1c-.24,0-.25.4,0,.38"/><path class="cls-5" d="M1523.79,315.93a122.68,122.68,0,0,1,13-.76q3.26,0,6.5.15c1,.05,2,.11,3,.19.59,0,1.28.27,1.79-.1a.2.2,0,0,0,.09-.21c0-.23-.07-.25-.28-.35a.21.21,0,0,0-.23,0l-.08.09c-.17.18.09.44.26.27-.24.25-2.4-.17-2.73-.19-1-.07-2-.12-3-.16q-3.11-.13-6.21-.09c-4,0-8.08.31-12.1.75-.24,0-.24.41,0,.38"/><path class="cls-5" d="M1523.76,311.39l13-.42,6.34-.2c.46,0,.94,0,1.42,0a14.88,14.88,0,0,0,4.18-.38c.23-.07.14-.44-.1-.37a15.48,15.48,0,0,1-4.49.4c-.55,0-1.09,0-1.62,0l-6.33.2-12.37.4a.19.19,0,0,0,0,.38"/><path class="cls-5" d="M1527.39,307.3q10.69-1,21.46-1a.19.19,0,0,0,0-.37q-10.75,0-21.46,1c-.24,0-.25.4,0,.37"/><path class="cls-43" d="M1542.34,333.13s.91-10.24-3.66-10.24S1535.2,333,1535.2,333l7.14.1"/><path class="cls-44" d="M1525.13,318.45s-.65-7.05,2.48-7.05,2.6,6.88,2.6,6.88l-5.08.17"/><polyline class="cls-45" points="1527.52 318.79 1527.3 311.24 1527.6 311.23 1527.82 318.79 1527.52 318.79"/><polygon class="cls-45" points="1525.08 314.81 1525.06 314.5 1530.12 314.13 1530.14 314.43 1525.08 314.81 1525.08 314.81"/><path class="cls-44" d="M1541.64,318.45s-.64-7.05,2.48-7.05,2.61,6.88,2.61,6.88l-5.09.17"/><polyline class="cls-45" points="1544.03 318.79 1543.81 311.24 1544.11 311.23 1544.33 318.79 1544.03 318.79"/><polygon class="cls-45" points="1541.6 314.81 1541.57 314.5 1546.63 314.13 1546.65 314.43 1541.6 314.81 1541.6 314.81"/><path class="cls-46" d="M1541.79,329.14a.48.48,0,1,1-.48-.47.48.48,0,0,1,.48.47Z"/><path class="cls-5" d="M1524.8,318.59a44,44,0,0,0,5.74-.12"/><path class="cls-5" d="M1524.8,319.35a40.76,40.76,0,0,0,5.74-.13c1-.07,1-1.58,0-1.51a40.76,40.76,0,0,1-5.74.13c-1-.07-1,1.44,0,1.51"/><path class="cls-5" d="M1525.55,314.79a2.27,2.27,0,0,1,2.57-2.64c1.25.28,1.37,1.42,1.46,2.55.08,1,1.59,1,1.51,0-.16-2-.8-3.87-3.06-4.11-2.6-.29-4.28,2.27-3.94,4.6.14,1,1.6.55,1.46-.4"/><path class="cls-5" d="M1541.31,318.59a44,44,0,0,0,5.74-.12l-5.74.12"/><path class="cls-5" d="M1541.31,319.35a40.76,40.76,0,0,0,5.74-.13c1-.07,1-1.58,0-1.51a40.76,40.76,0,0,1-5.74.13c-1-.07-1,1.44,0,1.51"/><path class="cls-5" d="M1542.06,314.79a2.27,2.27,0,0,1,2.57-2.64c1.25.28,1.37,1.42,1.46,2.55.08,1,1.59,1,1.51,0-.16-2-.79-3.87-3.06-4.11-2.6-.29-4.28,2.27-3.94,4.6.14,1,1.6.55,1.46-.4"/><path class="cls-47" d="M1536,326.33a36,36,0,0,0,0,4.28c0,.13.2.13.19,0-.07-1.43-.14-2.85-.11-4.28a0,0,0,0,0-.08,0"/><path class="cls-47" d="M1537.56,324.07c0,1.67,0,3.36,0,5a14.17,14.17,0,0,0,.25,3.85.08.08,0,0,0,.13,0l0,0v-.09l0,0c0-.05-.1,0-.09.05a24.22,24.22,0,0,1-.17-4.35c0-1.48,0-3-.12-4.45Z"/><path class="cls-47" d="M1538.6,324.72a7.21,7.21,0,0,0,.05,1.47c0,.05.07,0,.07,0a7.16,7.16,0,0,0-.08-1.46Z"/><path class="cls-47" d="M1539.58,324.26c.12,2.86.19,5.71.22,8.57,0,.08.13.08.13,0,0-2.86-.07-5.72-.28-8.57,0,0-.07,0-.07,0"/><path class="cls-47" d="M1540.67,330.66c0,.37-.05,1.06.35,1.26.21.11.57-.09.42-.34l-.06,0c0,.18-.08.27-.27.26a.45.45,0,0,1-.22-.21.85.85,0,0,1-.1-.28,2.12,2.12,0,0,1-.07-.71h0"/><path class="cls-47" d="M1540.68,326a.12.12,0,0,1,.15.1.53.53,0,0,1,.08.15,2.65,2.65,0,0,1,.11.3,5.81,5.81,0,0,1,.09.58s.08,0,.08,0a1.64,1.64,0,0,0-.31-1.11c-.07-.1-.29-.23-.26,0Z"/><path class="cls-47" d="M1536.14,331.41c-.05.25-.1.61.18.75s.46-.07.39-.29c0,0-.08,0-.08,0a.18.18,0,0,1-.15.2.25.25,0,0,1-.24-.14.69.69,0,0,1,0-.51l-.06,0Z"/><path class="cls-5" d="M1523.87,309.19c4.13-.59,8-2.38,12-3.58a119.83,119.83,0,0,1,12.68-3,3,3,0,0,0,2.11-3.72,3.08,3.08,0,0,0-3.71-2.11,117.64,117.64,0,0,0-12.69,3c-4,1.19-7.88,3-12,3.57-1.61.23-2.5,2.29-2.11,3.72a3.11,3.11,0,0,0,3.72,2.11"/><path class="cls-48" d="M1525.48,327h0"/><path class="cls-49" d="M1530.77,312.92l0,0v0l0,.07"/><polyline class="cls-16" points="1676.61 331.89 1645.41 331.89 1645.41 287.37 1676.61 287.37 1676.61 331.89"/><path class="cls-7" d="M1680.1,287.48h-36.46a4.19,4.19,0,0,1-1.73-.14c-1.27-.64.15-1.83.95-2.29a5.46,5.46,0,0,0,1.09-.66,3.75,3.75,0,0,0,.9-1.89,19,19,0,0,1,2.63-5.55,3,3,0,0,1,.76-.82,2.9,2.9,0,0,1,1.27-.35c4.18-.5,8.39-.72,12.59-.94l5.62-.29a7.45,7.45,0,0,1,4.39.67,7.53,7.53,0,0,1,2,2.12l4.44,6.26a7.58,7.58,0,0,1,1.75,3.79.88.88,0,0,1-.28.81,1,1,0,0,1-.75,0,37.26,37.26,0,0,0-7.54-.42l-4,.05-6.45.07c-1,0-2,0-3,.1-.6,0-1.19.12-1.79.12a17.19,17.19,0,0,1-1.9-.17,80.51,80.51,0,0,0-10.76-.36c-1.41,0-2.71.26-1.74-1.4.43-.75,1-1.45,1.46-2.16l5.82-8.63s0-.08.06-.08h23Z"/><path class="cls-7" d="M1680.1,287H1650c-1.92,0-4.46.45-6.32,0-.62-.16-.44.3-.94-.45s-.17-.48.41-1c.32-.31.86-.41,1.2-.74.89-.86,1-2.25,1.44-3.36.76-2,1.74-4.57,4-5.11a39.79,39.79,0,0,1,6.55-.6c3.93-.26,7.88-.5,11.82-.63,3.07-.11,4.39,1,6.1,3.33q1.83,2.53,3.61,5.09a7.94,7.94,0,0,1,1.53,2.53c.16.72.18,1.38-.9,1.61a2.3,2.3,0,0,1-.6-.07c-1.94.2-4.16-.23-6.14-.21-4,0-7.93,0-11.89.15s-8-.32-12-.36c-1,0-4.78.55-5.14-.29s2.4-4,3-4.85l3.18-4.71c.27-.4,1.49-1.67.69-1.4.08,0,.19,0,.27,0,2.77-.42,5.93,0,8.72,0H1670a11.88,11.88,0,0,0,1.79,0c.55-.08.77.23.24-.23.85.74,1.46,2.31,2.06,3.25l5.6,8.85c.34.54,1.2,0,.86-.51l-6.16-9.73c-.44-.7-1-2.22-1.8-2.61s-2.19,0-2.92,0h-14.22c-1.75,0-3.55-.12-5.29,0s-2.05,1.66-3,3.08c-1.32,2-2.63,3.93-4,5.88-.55.79-2.26,2.46-1.81,3.61.24.62.81.66,1.39.73,2.28.24,4.71-.09,7,0s4.83.54,7.23.49c2.66-.06,5.32-.21,8-.24l6.72-.08c1.26,0,2.53,0,3.79,0a33.57,33.57,0,0,0,4,.43c2.53-.21.8-3.48,0-4.72-1.27-2-2.73-3.87-4.1-5.79-1-1.42-2-3.09-3.64-3.8a10.14,10.14,0,0,0-4.45-.38l-7.58.39c-2.42.13-4.84.28-7.26.5-1.34.13-3.35,0-4.52.81-1.47,1-2.34,3.34-3,4.92s-.69,2.64-2,3.77c-.55.45-1.23.65-1.63,1.3-1.74,2.81,3.67,2.21,4.81,2.21h34A.5.5,0,0,0,1680.1,287Z"/><path class="cls-17" d="M1645.54,312.6c10.12-2.07,20.43.1,30.64-.51.15,0,.15-.24,0-.23-8,.48-16.09-.77-24.14-.31a45.37,45.37,0,0,0-6.57.82c-.14,0-.08.26.07.23Z"/><path class="cls-17" d="M1645.62,318.17l30.75.27a.12.12,0,0,0,0-.23l-30.75-.27c-.15,0-.15.23,0,.23Z"/><path class="cls-17" d="M1645.39,323.11a137.18,137.18,0,0,0,31,1.21c.15,0,.15-.24,0-.23a136.64,136.64,0,0,1-30.91-1.2c-.15,0-.21.2-.06.22Z"/><path class="cls-17" d="M1645.41,307.45a244.31,244.31,0,0,1,30.85-.41c.15,0,.15-.22,0-.23a246.2,246.2,0,0,0-30.85.4c-.14,0-.15.25,0,.24Z"/><path class="cls-17" d="M1645.54,296.07c10.12-2.07,20.43.1,30.64-.51.15,0,.15-.24,0-.23-8,.48-16.09-.77-24.14-.32a46.83,46.83,0,0,0-6.57.83c-.14,0-.08.26.07.23Z"/><path class="cls-17" d="M1645.62,301.64l30.75.27a.12.12,0,0,0,0-.23l-30.75-.28a.12.12,0,0,0,0,.24Z"/><path class="cls-17" d="M1645.41,290.91a246.2,246.2,0,0,1,30.85-.4c.15,0,.15-.23,0-.23a244.31,244.31,0,0,0-30.85.4c-.14,0-.15.25,0,.23Z"/><path class="cls-18" d="M1651.07,299.43c0-3.94,1.29-7.14,2.88-7.14s2.87,3.2,2.87,7.14"/><line class="cls-19" x1="1653.95" y1="292.29" x2="1653.95" y2="299.73"/><line class="cls-20" x1="1656.47" y1="296.15" x2="1651.38" y2="296.15"/><path class="cls-7" d="M1652.47,296.08c.31-.55.68-2.19,1.38-2.35s1.27,1.59,1.57,2.07c.69,1.08,2.42.08,1.73-1-.83-1.31-1.42-3.22-3.34-3.07s-2.31,2-3.07,3.35a1,1,0,0,0,1.73,1Z"/><path class="cls-7" d="M1650.85,300.23a35.49,35.49,0,0,1,5.74,0c.72.06.72-1.07,0-1.13a35.49,35.49,0,0,0-5.74,0c-.72,0-.72,1.18,0,1.13Z"/><path class="cls-18" d="M1665,299.74c0-3.95,1.28-7.15,2.87-7.15s2.87,3.2,2.87,7.15"/><line class="cls-19" x1="1667.89" y1="292.59" x2="1667.89" y2="300.03"/><line class="cls-20" x1="1670.41" y1="296.46" x2="1665.32" y2="296.46"/><path class="cls-7" d="M1671.24,296.08c-.29-1.57-.92-3.58-2.64-4.08a2.81,2.81,0,0,0-3.46,1.88c-.2.89,1.09,1.55,1.54.65.07-.12.12-.26.18-.39.14-.3.41-.49,0-.2l-1-.13,0,0-.25-.6A3.3,3.3,0,0,1,1665,295c-.66.84.52,2,1.19,1.19s1.63-2.65.86-3.55a.85.85,0,0,0-1-.14,2.63,2.63,0,0,0-.76,1.2l1.54.65c.21-.93,1.44-.91,2-.29a5.61,5.61,0,0,1,.89,2.49c.2,1.07,1.82.62,1.63-.45Z"/><path class="cls-7" d="M1665.11,300.34a22.29,22.29,0,0,1,5.29.06c.72.1.71-1,0-1.13a22.29,22.29,0,0,0-5.29-.06c-.71.08-.72,1.21,0,1.13Z"/><path class="cls-7" d="M1666.32,295.86c.11-.38.17-1.34.48-1.63s1.21-.05,1.51.09.45.52.7.81a1.76,1.76,0,0,1,.5,1.5c0,1.29,2,1.29,2,0a3.59,3.59,0,0,0-.9-2.71c-.29-.33-.48-.75-.79-1.06a2.46,2.46,0,0,0-1.44-.55,3.45,3.45,0,0,0-2.66.17c-.89.63-1.06,1.88-1.33,2.85a1,1,0,0,0,1.93.53Z"/><path class="cls-10" d="M1606.25,333.8h-16.43a2.88,2.88,0,0,1-2.88-2.89V285.67h19.31V333.8Z"/><polygon class="cls-10" points="1606.25 285.9 1586.94 285.9 1596.6 270.64 1606.25 285.9 1606.25 285.9"/><path class="cls-7" d="M1607,286.33l-9.65-16.14a.92.92,0,0,0-1.51,0l-9.65,16.14a.87.87,0,0,0,.3,1.2.92.92,0,0,0,.45.12.87.87,0,0,0,.75-.42l8.91-14.88,8.9,14.88a.88.88,0,0,0,1.2.3.87.87,0,0,0,.3-1.2"/><path class="cls-21" d="M1599.88,286.36a3.53,3.53,0,0,0-.73-2l-1.89,2Z"/><path class="cls-21" d="M1598.11,283.46h0l-.22-.12h-.05l-.27-.11h0l-.28-.08h0l-.29-.05h-.14v3.12l2-2.17a3.17,3.17,0,0,0-.75-.57"/><path class="cls-21" d="M1596,286.36l-1.75-1.85-.17-.19a3.54,3.54,0,0,0-.76,2H1596Z"/><polygon class="cls-21" points="1596.81 292.74 1599.89 292.74 1599.89 289.86 1596.81 289.86 1596.81 292.74 1596.81 292.74"/><polygon class="cls-21" points="1596.81 289.42 1599.89 289.42 1599.89 286.8 1596.81 286.8 1596.81 289.42 1596.81 289.42"/><path class="cls-21" d="M1594.53,284.17l1.85,2v-3.05a3.21,3.21,0,0,0-2,.92l.17.17Z"/><polygon class="cls-21" points="1593.3 289.86 1593.3 292.74 1593.5 292.74 1593.52 292.74 1596.38 292.74 1596.38 289.86 1593.52 289.86 1593.3 289.86 1593.3 289.86"/><polygon class="cls-21" points="1593.3 286.8 1593.3 289.42 1593.52 289.42 1596.38 289.42 1596.38 286.8 1593.52 286.8 1593.3 286.8 1593.3 286.8"/><path class="cls-14" d="M1599.89,289.42h-3.08V286.8h3.08v2.62Zm0,3.32h-3.08v-2.88h3.08v2.88Zm-.74-8.38a3.53,3.53,0,0,1,.73,2h-2.62l1.89-2Zm.09-.68a2.63,2.63,0,0,0-.38.36h0l-2,2.17v-3.09h-.43v3l-1.85-1.95-.16-.18a2.35,2.35,0,0,0-.3.33l.17.18,1.75,1.85h-2.65v.44h3v2.62h-3v.44h3v2.88h-3.08v0l-.5.42h7.59V286.4a3.77,3.77,0,0,0-1.15-2.72"/><path class="cls-14" d="M1599.23,283.67a3.6,3.6,0,0,0-.86-.63h0l-.32-.15h0l-.3-.11-.1,0-.26-.06-.18,0-.19,0-.38,0a3.8,3.8,0,0,0-3.8,3.8v0h0v6.71l.5-.42,0,0v-6.32a3.33,3.33,0,0,1,.25-1.23l0,0a2.56,2.56,0,0,1,.11-.24l0-.05a4.07,4.07,0,0,1,.33-.48,2.35,2.35,0,0,1,.3-.33,3.18,3.18,0,0,1,2-.89h.43a3.22,3.22,0,0,1,2,.92h0a2.63,2.63,0,0,1,.38-.36h0"/><polygon class="cls-22" points="1586.56 298.85 1606.63 298.85 1606.63 299.65 1586.56 299.65 1586.56 298.85 1586.56 298.85"/><polygon class="cls-23" points="1586.14 298.04 1607.05 298.04 1607.05 298.86 1586.14 298.86 1586.14 298.04 1586.14 298.04"/><polygon class="cls-24" points="1606.58 299.99 1586.62 299.99 1586.62 299.65 1606.58 299.65 1606.58 299.99 1606.58 299.99"/><polygon class="cls-24" points="1586.56 298.85 1606.63 298.85 1606.63 299.19 1586.56 299.19 1586.56 298.85 1586.56 298.85"/><path class="cls-7" d="M1593.41,293.18l.3-.23-.83-.47c.29,1.18,1.45.88,2.38.82a39.67,39.67,0,0,1,4.88.11.67.67,0,0,0,.18-1.31,9,9,0,0,0-3.93-.28c-1.27.17-2.52-.24-3.71.35-.77.38-.09,1.54.68,1.15s2.11,0,3-.14a8.07,8.07,0,0,1,3.62.21l.17-1.31c-.58,0-6.05-.3-6,.05a.67.67,0,0,0-.82-.47,1.72,1.72,0,0,0-1.09.85c-.45.73.7,1.41,1.15.67Z"/><path class="cls-7" d="M1587.46,288.18c1.83-1.93,1.79-4.61,3.45-6.63.67-.82,1.57-1.34,2.07-2.32.83-1.62.66-3.42,1.64-5.06a8.27,8.27,0,0,1,.9-1.29c.42-1.06.82-1,1.19.06.74.71.61,1.45.89,2.32a16.12,16.12,0,0,0,1.39,3.39c1.73,3,4.43,5.27,5.61,8.59.64,1.81,3.54,1,2.89-.79-1.43-4.06-5-6.72-6.54-10.65-.92-2.29-1.07-6.74-4.53-6.91-2.51-.12-4.65,3.68-5.35,5.67-.59,1.69-.36,2.66-1.59,4.25-.46.58-1.12,1-1.55,1.6-1.2,1.72-1.12,4.09-2.59,5.65-1.32,1.4.8,3.53,2.12,2.12Z"/><polyline class="cls-4" points="1586.72 332.06 1550.94 332.06 1550.94 302.74 1586.72 302.74 1586.72 332.06"/><path class="cls-7" d="M1588.4,303H1552a4,4,0,0,1-1.73-.14c-1.27-.64.14-1.83.94-2.29a5.83,5.83,0,0,0,1.1-.66,3.92,3.92,0,0,0,.9-1.89,18.74,18.74,0,0,1,2.63-5.55,2.81,2.81,0,0,1,.75-.82,3,3,0,0,1,1.28-.35c4.17-.5,8.38-.72,12.58-.94l5.62-.29a7.5,7.5,0,0,1,4.39.67,7.39,7.39,0,0,1,2,2.12l4.45,6.26a7.65,7.65,0,0,1,1.74,3.79.87.87,0,0,1-.27.81,1,1,0,0,1-.76,0,37.18,37.18,0,0,0-7.54-.42l-4,.05-6.45.08c-1,0-2,0-3,.09-.6,0-1.2.12-1.8.12a17.23,17.23,0,0,1-1.89-.17,82.22,82.22,0,0,0-10.76-.36c-1.42,0-2.71.26-1.74-1.4.43-.75,1-1.45,1.45-2.16l5.83-8.63s0-.08,0-.08h23Z"/><path class="cls-7" d="M1588.4,302.54h-30.14c-1.92,0-4.46.45-6.31,0-.62-.15-.44.3-1-.45s-.17-.48.41-1c.32-.31.87-.41,1.2-.73.89-.87,1-2.26,1.44-3.37.76-2,1.74-4.57,4-5.11a39.89,39.89,0,0,1,6.55-.6c3.94-.26,7.88-.5,11.82-.63,3.07-.1,4.4,1,6.1,3.33,1.22,1.69,2.42,3.39,3.62,5.09a8.12,8.12,0,0,1,1.53,2.53c.16.72.17,1.39-.91,1.61a2.3,2.3,0,0,1-.6-.07c-1.93.2-4.16-.23-6.14-.21-4,0-7.93,0-11.88.15s-8-.32-12-.36c-1,0-4.78.55-5.14-.29s2.41-4,3-4.85l3.18-4.7c.27-.41,1.49-1.68.7-1.41.08,0,.19,0,.27,0,2.76-.42,5.92,0,8.71,0h11.51a11.88,11.88,0,0,0,1.79,0c.54-.08.76.23.24-.23a15.53,15.53,0,0,1,2,3.25l5.6,8.85c.34.54,1.21,0,.86-.51l-6.15-9.73c-.45-.7-1-2.22-1.81-2.61s-2.19,0-2.91,0h-14.23c-1.74,0-3.54-.12-5.29,0s-2,1.66-3,3.08c-1.32,2-2.63,3.93-4,5.88-.55.79-2.26,2.46-1.81,3.61.24.62.81.67,1.39.73,2.28.24,4.72-.09,7,0s4.83.54,7.23.49c2.67-.06,5.33-.21,8-.24l6.72-.08c1.27,0,2.53,0,3.79,0a33.8,33.8,0,0,0,4,.43c2.54-.21.8-3.48,0-4.72-1.28-2-2.74-3.87-4.1-5.79-1-1.42-2-3.09-3.65-3.8a10.13,10.13,0,0,0-4.45-.38c-2.52.12-5,.25-7.57.39s-4.85.28-7.27.5c-1.33.13-3.34,0-4.52.81-1.46,1-2.34,3.34-3,4.92s-.69,2.64-2,3.77c-.55.45-1.22.65-1.63,1.3-1.73,2.81,3.68,2.21,4.82,2.21h34A.5.5,0,0,0,1588.4,302.54Z"/><path class="cls-17" d="M1550.94,312.78c9.11-1.62,18.37-.63,27.55-.42,2.59.06,5.19.05,7.77-.08.16,0,.16-.26,0-.25-9.26.48-18.52-.77-27.79-.32a58.52,58.52,0,0,0-7.59.83c-.16,0-.1.27.06.24Z"/><path class="cls-17" d="M1551.05,318.35l27.57.21,7.86.06a.13.13,0,0,0,0-.25l-27.57-.21-7.86-.06a.13.13,0,1,0,0,.25Z"/><path class="cls-17" d="M1550.81,323.3a181.76,181.76,0,0,0,27.79,1.55q3.93-.09,7.88-.35c.16,0,.16-.26,0-.25a180.81,180.81,0,0,1-27.83-.33q-3.93-.35-7.84-.87c-.16,0-.16.23,0,.25Z"/><path class="cls-17" d="M1550.8,307.63q13.85-.92,27.73-.65,3.92.07,7.83.24c.16,0,.16-.24,0-.25q-13.86-.6-27.73,0c-2.61.11-5.22.26-7.83.43-.16,0-.16.26,0,.25Z"/><path class="cls-18" d="M1566.13,313c0-3.95,1.28-7.15,2.87-7.15s2.87,3.2,2.87,7.15"/><line class="cls-19" x1="1569" y1="305.84" x2="1569" y2="313.28"/><line class="cls-20" x1="1571.52" y1="309.71" x2="1566.44" y2="309.71"/><path class="cls-7" d="M1572.35,309.34c-.3-1.63-1-3.68-2.77-4.13a2.9,2.9,0,0,0-3.35,2l.39-.51,0,0,1.27.73c0,.16,0,0,0-.06l-1.54.2c-.25-.37,0-.26-.13,0s-.08.41-.12.6a2.74,2.74,0,0,1-.39,1.09c-.64.88.82,1.72,1.45.85.48-.65,1.15-2.66.65-3.43a.86.86,0,0,0-1.54.2,1.48,1.48,0,0,0-.09.51.84.84,0,0,0,1.27.72c.63-.44.62-1.49,1.68-1.29s1.42,2,1.59,2.94c.2,1.07,1.83.62,1.63-.44Z"/><path class="cls-7" d="M1566.23,313.59a22.21,22.21,0,0,1,5.28.06c.72.1.71-1,0-1.13a22.21,22.21,0,0,0-5.28-.06c-.72.08-.73,1.21,0,1.13Z"/><path class="cls-18" d="M1556.44,322.26c0-3.94,1.28-7.14,2.87-7.14s2.87,3.2,2.87,7.14"/><line class="cls-19" x1="1559.31" y1="315.12" x2="1559.31" y2="322.56"/><line class="cls-20" x1="1561.83" y1="318.99" x2="1556.75" y2="318.99"/><path class="cls-7" d="M1557.7,318.83c.28-.5.47-1,.73-1.56.15-.29.49-1.11.83-1.21.53-.15,1.41,2.09,1.66,2.49.58.91,2,.07,1.46-.85-.73-1.14-1.41-3.56-3.16-3.39s-2.28,2.44-3,3.67a.85.85,0,0,0,1.46.85Z"/><path class="cls-7" d="M1556.21,323.06a34.38,34.38,0,0,1,5.74,0c.73.05.72-1.08,0-1.13a34.38,34.38,0,0,0-5.74,0c-.72.06-.72,1.19,0,1.13Z"/><path class="cls-18" d="M1575.81,322.57c0-3.95,1.29-7.15,2.88-7.15s2.87,3.2,2.87,7.15"/><line class="cls-19" x1="1578.69" y1="315.42" x2="1578.69" y2="322.86"/><line class="cls-20" x1="1581.21" y1="319.29" x2="1576.12" y2="319.29"/><path class="cls-7" d="M1582,318.91c-.28-1.49-.85-3.38-2.4-4a2.81,2.81,0,0,0-3.6,1.56l1.46.85c.1-.22.2-.45.31-.67l-1.57-.43a2.93,2.93,0,0,1-.61,1.75c-.63.88.83,1.72,1.46.85a4.4,4.4,0,0,0,.83-2.6.85.85,0,0,0-1.57-.42l-.31.67c-.44,1,1,1.84,1.46.85.38-.84,1.3-1.34,2-.46a5.61,5.61,0,0,1,.89,2.49c.2,1.07,1.82.62,1.63-.45Z"/><path class="cls-7" d="M1575.91,323.17a22.29,22.29,0,0,1,5.29.06c.72.1.71-1,0-1.13a22.29,22.29,0,0,0-5.29-.06c-.71.08-.72,1.21,0,1.13Z"/><path class="cls-7" d="M1577.24,318.62a3.63,3.63,0,0,1,.24-1.22c.2-.4.56-.47,1-.54a1,1,0,0,0,.69-1.23,1,1,0,0,0-1.23-.7,2.93,2.93,0,0,0-2.12,1.38,5.57,5.57,0,0,0-.56,2.31,1,1,0,0,0,1,1,1,1,0,0,0,1-1Z"/><path class="cls-7" d="M1577.38,317.81a1.26,1.26,0,0,1,1.84-.52c1,.55.82,1.35,1.16,2.27.44,1.2,2.37.68,1.92-.53a8.64,8.64,0,0,0-.77-2.35,4.32,4.32,0,0,0-2.07-1.47,3.25,3.25,0,0,0-3.8,1.59c-.62,1.13,1.11,2.14,1.72,1Z"/><path class="cls-7" d="M1567.24,309.77c0-.92.16-2.89,1.55-2.65s1.59,1.79,1.82,2.81c.28,1.26,2.21.73,1.93-.53-.46-2-1.63-4.38-4.08-4.31s-3.14,2.69-3.22,4.68c0,1.29,2,1.29,2,0Z"/><path class="cls-10" d="M1698.28,322.38c-.12-3.15.41-6.62-1.33-9.4-2.94-4.69-5.86-9.65-9.55-13.8a.63.63,0,0,0-1,.12,75,75,0,0,0-5,7.42c-1.49,2.53-3,5.08-4.37,7.71-1.18,2.35-1.21,5.16-1.31,7.74-.13,3.12-.17,9.36-.17,9.36l23,.25s-.18-6.27-.3-9.4"/><path class="cls-7" d="M1681.91,317c0-2.69.92-4.87,2-4.87s2,2.18,2,4.87"/><path class="cls-7" d="M1688.22,317c0-2.69.92-4.87,2-4.87s2,2.18,2,4.87"/><path class="cls-16" d="M1683.61,331.64c0-5.93,1.56-10.73,3.48-10.73s3.49,4.8,3.49,10.73"/><path class="cls-5" d="M1700.67,313.37c-1.21-3.13-3.49-6-5.59-8.55-1.34-1.63-2.74-3.21-4.17-4.77-1.2-1.32-2.34-2.9-4.12-3.42a.62.62,0,0,0-.7.29,1.6,1.6,0,0,0-.1.23.52.52,0,0,0-.28.16c-3.33,4-6.3,8.25-9.41,12.38-.78,1-1.57,2.07-2.35,3.12A3.07,3.07,0,0,0,1673,315a1.23,1.23,0,0,0,.72,1,1.09,1.09,0,0,0,.13.17c.56.59,1.57.15,2.07-.25a11.53,11.53,0,0,0,2.12-2.82c.77-1.18,1.49-2.4,2.21-3.62a54.6,54.6,0,0,1,4.54-6.92,13,13,0,0,0,2.1-2.8c1.64,2.5,3.87,4.6,5.63,7a46.67,46.67,0,0,1,3,4.63,38.85,38.85,0,0,0,2.35,4.59,2,2,0,0,0,2.58.74c1.18-.69.6-2.4.21-3.39"/><path class="cls-3" d="M1709.93,331.54l38.18-78.74s.73-2.19,2-2.37v81.11Z"/><path class="cls-4" d="M1790.31,331.54l-38.18-78.74s-.73-2.19-2-2.37v81.11Z"/><path class="cls-5" d="M1750.14,249.35s-.49-1-7,13.65c0,0,4.62,4.86,6.95,4.26s7.21-3.73,7.21-3.73S1752.15,251.72,1750.14,249.35Z"/><path class="cls-3" d="M1764.31,333.93,1795,211s.59-3.42,1.62-3.71V333.93Z"/><path class="cls-4" d="M1829,333.93,1798.28,211s-.59-3.42-1.62-3.71V333.93Z"/><path class="cls-5" d="M1796.45,207.31s-1.12-.66-3.59,12.43c0,0,2,4.63,3.82,4.16s3.82-4,3.82-4S1797.93,205.91,1796.45,207.31Z"/><path class="cls-7" d="M1548.52,347.66c-2.26.06-4.59.06-7,0Z"/><path class="cls-7" d="M1920,332.47V399.6H1622.84V331.93c.33-.19,1.83-.57,2.17-.74,9.52-4.86,19.13-4.8,29.4-2.77,4.32.85,13.56,2.21,20.48,3,2.4.26,4.53.45,6.07.53,1.79.09,3.5.08,5.15,0,1.91-.1,3.75-.29,5.54-.53,6.79-.93,13-2.65,20.81-2.89a198.19,198.19,0,0,1,44.08,2.89c.37.06,23.61-.83,50.86-11.58,20.54-8.1,43.08,1.77,62.56,1.86,24.29.1,41.81,5.68,47.87,9.51A20.76,20.76,0,0,0,1920,332.47Z"/><path class="cls-8" d="M1484.21,327.18c.26,0,3,.14,4.34.23,2,.14,19.47,11.13,21.38,11.57a127.25,127.25,0,0,0,18.79,2.69c8.9.81,16.33.26,25.18,1.47,14.34,1.95,24,2.72,37.78-1.86,7.73-2.56,28.28-7.82,35.63-11.39.85-.41,2,.12,9.66.74.6.05,1.32.09,2,.21,2.36.43-11.59,5.86-12.51,6.58-4,3.14-13,4.45-17.49,6.64-9,4.39-13.82,6.77-23.65,7.58-13.81,1.14-19.83,1.55-33.84.47-13.09-1-19.84-2.15-32.88-3.62-7.69-.86-22.55-2.94-28.08-8.85-1.89-2-13.94-9.64-13.31-12.45C1479,327.1,1481.33,327.12,1484.21,327.18Z"/><path class="cls-27" d="M1520.06,322.15c0,6.34-2.64,8.86-5.88,8.86s-5.89-2.52-5.89-8.86,2.64-18,5.89-18,5.88,11.68,5.88,18"/><path class="cls-28" d="M1514.18,331h0l.55,0h0l-.55,0"/><path class="cls-28" d="M1514.15,331h0m0,0h0m0,0h0m0,0h0m0,0h0m0,0h0m0,0h0m0,0h0"/><path class="cls-29" d="M1514.18,331H1514a5.15,5.15,0,0,1-4.67-3.18,5.09,5.09,0,0,0,3,.9c3.25,0,5.88-2.52,5.88-8.86,0-4.53-1.34-11.76-3.28-15.54a3.81,3.81,0,0,1,1.22,1.22,19.8,19.8,0,0,1,2.3,5.62h0v0h0v0h0v0h0v0h0a46.23,46.23,0,0,1,1.55,10h0v0h0v0h0v0h0v0h0v0h0v.11h0v0h0v.06h0v0h0v0h0v0h0v0h0c0,5-1.63,7.61-3.91,8.51a5.65,5.65,0,0,1-1.42.33l-.55,0"/><path class="cls-7" d="M1514.18,304.12c-1.37,0-2.62,2.06-3.62,4.92a1.38,1.38,0,0,0,.58-.16c.73-.48,1-2.34,2-2.13.15.47-.05,1.68.55,1.7s.56-.82.89-1.14c.15.18.2.56.38.68.4.26.85-.18,1.25-.09s.83,1.1,1.55,1c-1-2.81-2.24-4.82-3.58-4.82Z"/><polygon class="cls-30" points="1514.92 335.7 1514.14 335.7 1514.14 322.66 1514.92 322.66 1514.92 335.7 1514.92 335.7"/><polygon class="cls-30" points="1514.6 327 1514.14 326.37 1516.41 324.71 1516.87 325.34 1514.6 327 1514.6 327"/><polygon class="cls-30" points="1514.81 328.66 1514.26 329.2 1511.48 326.4 1512.03 325.86 1514.81 328.66 1514.81 328.66"/><path class="cls-27" d="M1610.57,322.62c0,4.88-2,6.83-4.53,6.83s-4.52-1.95-4.52-6.83,2-13.86,4.52-13.86,4.53,9,4.53,13.86"/><path class="cls-28" d="M1606,329.45h0l.43,0h0l-.43,0"/><path class="cls-28" d="M1606,329.45h0m0,0h0m0,0h0m0,0h0m0,0h0m0,0h0m0,0h0m0,0h0"/><path class="cls-29" d="M1606,329.45h-.12a4,4,0,0,1-3.59-2.45,3.91,3.91,0,0,0,2.29.69c2.5,0,4.53-1.94,4.53-6.82,0-3.48-1-9.05-2.53-11.95a2.85,2.85,0,0,1,.94.93,15.39,15.39,0,0,1,1.78,4.33h0v0h0v0h0v0h0a35.92,35.92,0,0,1,1.19,7.68h0v0h0v0h0v.08h0v.05h0v0h0c0,3.85-1.25,5.87-3,6.55a4,4,0,0,1-1.09.26l-.43,0"/><path class="cls-7" d="M1606,308.76c-1,0-2,1.58-2.78,3.78a1,1,0,0,0,.45-.12c.56-.37.78-1.8,1.54-1.64.11.36,0,1.29.42,1.3s.43-.62.69-.88c.11.14.15.44.29.53.3.2.65-.13,1-.07s.64.85,1.19.8c-.76-2.16-1.72-3.7-2.76-3.7Z"/><polygon class="cls-30" points="1606.62 333.06 1606.02 333.06 1606.02 323.02 1606.62 323.02 1606.62 333.06 1606.62 333.06"/><polygon class="cls-30" points="1606.37 326.36 1606.02 325.88 1607.77 324.6 1608.12 325.08 1606.37 326.36 1606.37 326.36"/><polygon class="cls-30" points="1606.53 327.63 1606.11 328.06 1603.97 325.9 1604.4 325.48 1606.53 327.63 1606.53 327.63"/><path class="cls-7" d="M1652.47,295.47a5.81,5.81,0,0,1,1-1.67c.26-.22.15-.22.49,0a5.64,5.64,0,0,1,.82.73l1.41-1.41a3.33,3.33,0,0,0-3.58-.88,4.25,4.25,0,0,0-2.23,3.07c-.24,1.26,1.69,1.8,1.93.53s1.24-2.45,2.47-1.31a1,1,0,0,0,1.41-1.41c-.79-.81-2-1.88-3.2-1.45-1.08.37-1.8,1.85-2.29,2.78-.6,1.14,1.12,2.15,1.72,1Z"/><path class="cls-7" d="M1797.21,339.85c-3.09.08-6.28.08-9.63,0Z"/><circle class="cls-7" cx="504.06" cy="134.7" r="1.56"/><circle class="cls-7" cx="1019.72" cy="184.42" r="1.56"/><circle class="cls-7" cx="816.09" cy="185.98" r="1.56"/><circle class="cls-7" cx="1394.09" cy="244.03" r="1.56"/><circle class="cls-7" cx="754.53" cy="100.93" r="1.56"/><circle class="cls-7" cx="191.74" cy="127.14" r="1.56"/><circle class="cls-7" cx="323.38" cy="212.55" r="1.56"/><circle class="cls-7" cx="746.53" cy="272.73" r="1.56"/><circle class="cls-7" cx="1118.97" cy="131.58" r="1.56"/><circle class="cls-7" cx="1191.26" cy="208.77" r="1.56"/><circle class="cls-7" cx="1566.44" cy="174.93" r="1.56"/><circle class="cls-7" cx="83.04" cy="219.25" r="1.56"/><circle class="cls-7" cx="1029.42" cy="281.07" r="1.56"/><rect class="cls-15" x="1825.97" y="341.64" width="1.57" height="11.45" rx="0.5" ry="0.5"/><path class="cls-16" d="M1811.85,343.63c-1.2.32,28.28,0,28.28,0s-8.89-8.59-10.67-24.38h5.15s-5.51-3.16-8.62-21.93c0,0-1,15.08-8.09,21.05l4.8.35S1819.14,341.7,1811.85,343.63Z"/><rect class="cls-15" x="1848.65" y="324.51" width="0.94" height="6.9" rx="0.47" ry="0.47"/><path class="cls-16" d="M1840.15,325.71c-.73.19,17,0,17,0a25.49,25.49,0,0,1-6.43-14.69h3.11s-3.32-1.9-5.2-13.21c0,0-.59,9.09-4.87,12.68l2.89.21S1844.54,324.55,1840.15,325.71Z"/><polygon class="cls-50" points="207.27 361.59 181.05 361.59 188.07 311.75 200.9 311.75 207.27 361.59"/><path class="cls-51" d="M197,361.59v-8.18a2.28,2.28,0,0,0-2.2-2.33h-.86a2.28,2.28,0,0,0-2.2,2.33v8.18"/><rect class="cls-52" x="173.03" y="284.56" width="8.66" height="29.28" transform="translate(-159.62 213.05) rotate(-45)"/><line class="cls-52" x1="166.03" y1="293.99" x2="172.15" y2="287.87"/><line class="cls-52" x1="167.91" y1="295.87" x2="174.03" y2="289.75"/><line class="cls-52" x1="169.79" y1="297.75" x2="175.91" y2="291.63"/><line class="cls-52" x1="171.67" y1="299.63" x2="177.79" y2="293.51"/><line class="cls-52" x1="173.55" y1="301.51" x2="179.67" y2="295.39"/><line class="cls-52" x1="175.43" y1="303.39" x2="181.55" y2="297.27"/><line class="cls-52" x1="177.31" y1="305.27" x2="183.43" y2="299.15"/><line class="cls-52" x1="179.18" y1="307.15" x2="185.31" y2="301.02"/><line class="cls-52" x1="181.06" y1="309.02" x2="187.18" y2="302.9"/><line class="cls-52" x1="182.94" y1="310.9" x2="189.06" y2="304.78"/><rect class="cls-52" x="173.03" y="319.42" width="8.66" height="29.28" transform="translate(288.17 -27.57) rotate(45)"/><line class="cls-52" x1="166.03" y1="339.27" x2="172.15" y2="345.39"/><line class="cls-52" x1="167.91" y1="337.39" x2="174.03" y2="343.51"/><line class="cls-52" x1="169.79" y1="335.51" x2="175.91" y2="341.63"/><line class="cls-52" x1="171.67" y1="333.63" x2="177.79" y2="339.75"/><line class="cls-52" x1="173.55" y1="331.75" x2="179.67" y2="337.88"/><line class="cls-52" x1="175.43" y1="329.88" x2="181.55" y2="336"/><line class="cls-52" x1="177.31" y1="328" x2="183.43" y2="334.12"/><line class="cls-52" x1="179.18" y1="326.12" x2="185.31" y2="332.24"/><line class="cls-52" x1="181.06" y1="324.24" x2="187.18" y2="330.36"/><line class="cls-52" x1="182.94" y1="322.36" x2="189.06" y2="328.48"/><line class="cls-53" x1="167.91" y1="290.48" x2="220.65" y2="343.21"/><line class="cls-53" x1="168.28" y1="342.85" x2="221.01" y2="290.12"/><rect class="cls-52" x="196.99" y="294.87" width="29.28" height="8.66" transform="translate(-149.58 237.28) rotate(-45)"/><line class="cls-52" x1="222.96" y1="293.99" x2="216.84" y2="287.87"/><line class="cls-52" x1="221.08" y1="295.87" x2="214.96" y2="289.75"/><line class="cls-52" x1="219.2" y1="297.75" x2="213.08" y2="291.63"/><line class="cls-52" x1="217.32" y1="299.63" x2="211.2" y2="293.51"/><line class="cls-52" x1="215.44" y1="301.51" x2="209.32" y2="295.39"/><line class="cls-52" x1="213.56" y1="303.39" x2="207.44" y2="297.27"/><line class="cls-52" x1="211.68" y1="305.27" x2="205.56" y2="299.15"/><line class="cls-52" x1="209.8" y1="307.15" x2="203.68" y2="301.02"/><line class="cls-52" x1="207.93" y1="309.02" x2="201.8" y2="302.9"/><line class="cls-52" x1="206.05" y1="310.9" x2="199.93" y2="304.78"/><rect class="cls-52" x="207.3" y="319.42" width="8.66" height="29.28" transform="translate(-174.23 247.49) rotate(-45)"/><line class="cls-52" x1="222.96" y1="339.27" x2="216.84" y2="345.39"/><line class="cls-52" x1="221.08" y1="337.39" x2="214.96" y2="343.51"/><line class="cls-52" x1="219.2" y1="335.51" x2="213.08" y2="341.63"/><line class="cls-52" x1="217.32" y1="333.63" x2="211.2" y2="339.75"/><line class="cls-52" x1="215.44" y1="331.75" x2="209.32" y2="337.88"/><line class="cls-52" x1="213.56" y1="329.88" x2="207.44" y2="336"/><line class="cls-52" x1="211.68" y1="328" x2="205.56" y2="334.12"/><line class="cls-52" x1="209.8" y1="326.12" x2="203.68" y2="332.24"/><line class="cls-52" x1="207.93" y1="324.24" x2="201.8" y2="330.36"/><line class="cls-52" x1="206.05" y1="322.36" x2="199.93" y2="328.48"/><circle class="cls-54" cx="194.18" cy="317.25" r="1.61"/><rect class="cls-15" x="84.68" y="358.42" width="2.2" height="5.07" rx="0.5" ry="0.5"/><polygon class="cls-16" points="91.44 352.58 92.7 352.58 90.4 345.87 91.44 345.87 85.78 333.18 80.12 345.87 81.17 345.87 78.86 352.58 80.12 352.58 78.23 359.4 85.78 359.4 93.33 359.4 91.44 352.58"/><path class="cls-32" d="M87.49,337c.79,6.52,1.71,18.41-2.11,22.4h8l-1.88-6.82H92.7l-2.3-6.71h1Z"/><path class="cls-7" d="M78,359.63c5.31.15,10.62,0,15.93-.08a.39.39,0,0,0,0-.77c-5.31.11-10.62.24-15.93.08a.39.39,0,0,0,0,.77Z"/><path class="cls-7" d="M80.05,346.28c1,0,2-.12,3.06-.06a22.17,22.17,0,0,0,2.94.12c.49,0,1-.31,1.48-.31.72,0,1.31.45,2,.46a8.62,8.62,0,0,1,1.83,0c.48.1.69-.63.21-.73a4,4,0,0,0-1.26-.22c-1.2.05-2.17-.26-3.36-.2a33.24,33.24,0,0,1-3.46.06c-1.19-.05-2.27.14-3.45.12a.39.39,0,0,0,0,.77Z"/><path class="cls-7" d="M78.75,352.93c1.34,0,2.66-.12,4-.09,1.06,0,2.19.25,3.26.18.71,0,1.36-.34,2.08-.34a15.7,15.7,0,0,1,2.17.42,6.47,6.47,0,0,0,1.08,0,1,1,0,0,1,1.16,0,.9.9,0,0,0,.4.09c.48.09.68-.65.2-.73s-.61-.29-1-.32c-.74-.05-1.27.36-2.06.2a8.13,8.13,0,0,0-3.22-.19,23.06,23.06,0,0,1-4.07,0c-1.34,0-2.63.1-4,.08a.39.39,0,0,0,0,.77Z"/><path class="cls-7" d="M78.34,359.43a26,26,0,0,1,3.42,0,10.33,10.33,0,0,1,2.78,0c.14,0,.25.24.43.27.53.09.92-.21,1.45.18a.39.39,0,0,0,.39,0c1.12-.8,2.25-.38,3.46-.33.65,0,2.43-.17,2.59.11a.38.38,0,0,0,.66-.39c-.83-1.4-2-.54-3.24-.62a9.67,9.67,0,0,0-2.46.05c-.41.07-.93.35-1.27.36a23.35,23.35,0,0,1-2.51-.55c-.83-.06-1.7.14-2.54.12a21.07,21.07,0,0,0-3.37,0c-.48.06-.28.8.21.73Z"/><rect class="cls-15" x="116.81" y="372.74" width="3.49" height="8.04" rx="0.5" ry="0.5"/><polygon class="cls-16" points="127.54 363.49 129.54 363.49 125.88 352.84 127.54 352.84 118.56 332.72 109.57 352.84 111.24 352.84 107.58 363.49 109.57 363.49 106.58 374.3 118.56 374.3 130.53 374.3 127.54 363.49"/><path class="cls-32" d="M121.26,338.78c1.25,10.34,2.73,29.19-3.35,35.52h12.63l-3-10.81h2l-3.66-10.65h1.66Z"/><path class="cls-7" d="M106.19,374.66c8.43.26,16.85,0,25.27-.12a.61.61,0,0,0,0-1.22c-8.42.18-16.84.38-25.27.13a.61.61,0,0,0,0,1.21Z"/><path class="cls-7" d="M109.46,353.49c1.61,0,3.23-.18,4.85-.1a36.49,36.49,0,0,0,4.67.2c.78-.07,1.55-.5,2.35-.5,1.15,0,2.07.72,3.19.74a14.16,14.16,0,0,1,2.91,0c.76.17,1.08-1,.32-1.17a6.43,6.43,0,0,0-2-.33c-1.9.07-3.45-.43-5.34-.33a52.89,52.89,0,0,1-5.49.1c-1.89-.08-3.6.22-5.47.19a.61.61,0,0,0,0,1.22Z"/><path class="cls-7" d="M107.4,364c2.12,0,4.22-.19,6.33-.14,1.68,0,3.47.39,5.17.28,1.12-.08,2.15-.54,3.3-.54a26.64,26.64,0,0,1,3.45.68,9.64,9.64,0,0,0,1.7-.05,1.66,1.66,0,0,1,1.85,0,1.33,1.33,0,0,0,.63.14c.76.13,1.09-1,.32-1.17-.61-.1-1-.45-1.58-.49-1.18-.08-2,.57-3.28.31a12.53,12.53,0,0,0-5.1-.3,37.68,37.68,0,0,1-6.46,0c-2.13-.07-4.17.16-6.33.13a.61.61,0,0,0,0,1.22Z"/><path class="cls-7" d="M106.74,374.36a41,41,0,0,1,5.43,0c1.49,0,3-.35,4.42,0,.21.05.4.38.68.43.84.14,1.46-.33,2.3.29a.61.61,0,0,0,.61,0c1.78-1.27,3.58-.61,5.49-.53,1,.05,3.86-.26,4.12.18a.61.61,0,0,0,1.05-.62c-1.32-2.22-3.12-.85-5.14-1a16.44,16.44,0,0,0-3.9.08c-.67.11-1.49.56-2,.57-1.45,0-2.57-.75-4-.86s-2.7.21-4,.19a34.12,34.12,0,0,0-5.35,0c-.77.11-.44,1.28.32,1.17Z"/><rect class="cls-15" x="132.57" y="349.59" width="0.93" height="2.14" rx="0.47" ry="0.47"/><polygon class="cls-16" points="135.43 347.12 135.96 347.12 134.98 344.28 135.43 344.28 133.03 338.91 130.63 344.28 131.08 344.28 130.1 347.12 130.63 347.12 129.84 350 133.03 350 136.23 350 135.43 347.12"/><path class="cls-32" d="M133.75,340.52c.34,2.76.73,7.79-.89,9.48h3.37l-.8-2.88H136l-1-2.84h.45Z"/><path class="cls-7" d="M129.73,350.1c2.25.07,4.5,0,6.74,0a.17.17,0,0,0,0-.33c-2.24.05-4.49.1-6.74,0a.17.17,0,0,0,0,.33Z"/><path class="cls-7" d="M130.6,344.45c.43,0,.87-.05,1.3,0a10.3,10.3,0,0,0,1.24.06c.21,0,.42-.14.63-.14s.55.19.85.2a4.07,4.07,0,0,1,.78,0c.2,0,.29-.27.08-.32a1.84,1.84,0,0,0-.53-.09c-.51,0-.92-.11-1.42-.08a14.42,14.42,0,0,1-1.47,0c-.5,0-1,.06-1.46.06a.16.16,0,0,0,0,.32Z"/><path class="cls-7" d="M130.05,347.26c.57,0,1.13-.05,1.69,0s.93.1,1.38.07c.3,0,.58-.14.88-.14a7.12,7.12,0,0,1,.92.18,3.49,3.49,0,0,0,.46,0,.44.44,0,0,1,.49,0,.33.33,0,0,0,.17,0c.2,0,.29-.28.08-.31s-.25-.12-.42-.13-.54.15-.87.08a3.47,3.47,0,0,0-1.36-.08,10,10,0,0,1-1.73,0c-.57,0-1.11.05-1.69,0a.16.16,0,0,0,0,.32Z"/><path class="cls-7" d="M129.88,350a10,10,0,0,1,1.45,0,3.89,3.89,0,0,1,1.18,0c.05,0,.1.1.18.11s.39-.09.61.08a.17.17,0,0,0,.17,0c.47-.34.95-.17,1.46-.14.28,0,1-.07,1.1,0a.16.16,0,0,0,.28-.16c-.36-.59-.84-.23-1.37-.26a4,4,0,0,0-1,0c-.18,0-.4.15-.54.15a9.7,9.7,0,0,1-1.07-.23c-.35,0-.72.06-1.07.05a8.54,8.54,0,0,0-1.43,0c-.2,0-.12.34.09.31Z"/><rect class="cls-15" x="145.42" y="351.47" width="1.54" height="3.54" rx="0.5" ry="0.5"/><polygon class="cls-16" points="150.15 347.4 151.02 347.4 149.41 342.71 150.15 342.71 146.19 333.85 142.24 342.71 142.97 342.71 141.36 347.4 142.24 347.4 140.92 352.16 146.19 352.16 151.46 352.16 150.15 347.4"/><path class="cls-32" d="M147.38,336.52c.55,4.55,1.2,12.85-1.47,15.64h5.55l-1.31-4.76H151l-1.61-4.69h.74Z"/><path class="cls-7" d="M140.75,352.31c3.71.11,7.41,0,11.12-.05a.27.27,0,0,0,0-.54c-3.71.08-7.41.17-11.12.06-.34,0-.34.52,0,.53Z"/><path class="cls-7" d="M142.19,343c.71,0,1.42-.07,2.13,0a14.2,14.2,0,0,0,2.06.09c.34,0,.68-.22,1-.22.51,0,.91.32,1.4.32a6.18,6.18,0,0,1,1.29,0c.33.07.47-.44.14-.52a2.84,2.84,0,0,0-.88-.14c-.84,0-1.52-.19-2.35-.15s-1.59.09-2.41.05-1.59.09-2.41.08a.27.27,0,0,0,0,.53Z"/><path class="cls-7" d="M141.28,347.64c.94,0,1.86-.08,2.79-.06.74,0,1.53.17,2.27.12.5,0,.95-.24,1.45-.24a12.38,12.38,0,0,1,1.52.3,4.67,4.67,0,0,0,.75,0,.73.73,0,0,1,.81,0,.67.67,0,0,0,.28.06c.34.06.48-.46.14-.51s-.42-.2-.69-.22c-.52,0-.89.25-1.44.13a5.88,5.88,0,0,0-2.25-.13,15.85,15.85,0,0,1-2.84,0c-.94,0-1.84.07-2.79.06a.27.27,0,0,0,0,.54Z"/><path class="cls-7" d="M141,352.18a19.05,19.05,0,0,1,2.39,0,7.48,7.48,0,0,1,2,0c.09,0,.17.17.3.19.37.06.64-.14,1,.13a.26.26,0,0,0,.27,0c.78-.56,1.57-.27,2.41-.23.46,0,1.7-.12,1.82.07a.27.27,0,0,0,.46-.27c-.59-1-1.38-.37-2.27-.43a7,7,0,0,0-1.71,0,8.9,8.9,0,0,1-.89.25,14.89,14.89,0,0,1-1.76-.38c-.57,0-1.18.1-1.77.09a14.19,14.19,0,0,0-2.35,0c-.34,0-.19.56.14.51Z"/><path class="cls-7" d="M95,325h-.23c-7.51,0-13.67,1.94-14.59,4.39a5.77,5.77,0,0,1,1.48-.24c1.75,0,.15,1.56,2.77,1a16.45,16.45,0,0,0,4.75-2.24c.58-.31,1.66-1.19,2.78-.84.89.28.29.78,2,.79a28.81,28.81,0,0,1,3.21-.31c.89.11,1,.5,2,.59,1.4.11,2.83-.31,4.22-.18,2.59.23,1.3,1.78,5,1.64a7.36,7.36,0,0,0,1.36-.16C109,326.94,102.65,325,95,325Z"/><path class="cls-7" d="M117.85,330.17a24.9,24.9,0,0,1,7.65-.38,21.74,21.74,0,0,1,7.38,1.68,3.75,3.75,0,0,1,1.2.73.46.46,0,0,1,.17.38c0,.19-.26.28-.45.29-.88.05-1.64-.58-2.49-.78-1.09-.26-2.21.2-3.32.17a1.79,1.79,0,0,1-.61-.12c-.39-.18-.63-.58-1-.85a2.94,2.94,0,0,0-2.84-.13,2.07,2.07,0,0,1-1.43.2c-.43-.17-.79-.65-1.23-.5s-.56.93-1,.94-.54-.36-.65-.68-.29-.7-.63-.71c-.15,0-.31.07-.47,0s-.19.31-.35.22c-.37-.21-.62.41-1,.26,0,0-.75.13-.75,0S117.85,330.17,117.85,330.17Z"/><g class="cls-6"><path class="cls-3" d="M1113.31,332,1141,308.9a2.16,2.16,0,0,1,1.46-.69V332Z"/><path class="cls-4" d="M1171.68,332,1144,308.9a2.16,2.16,0,0,0-1.45-.69V332Z"/><path class="cls-5" d="M1142.51,307.89s-.36-.3-5.06,4c0,0,3.35,1.42,5,1.25a53.28,53.28,0,0,0,5.23-1.09S1144,308.59,1142.51,307.89Z"/></g><g class="cls-6"><path class="cls-3" d="M1195.58,334.9l14.76-23.07s.29-.64.78-.69V334.9Z"/><path class="cls-4" d="M1226.66,334.9l-14.76-23.07s-.29-.64-.78-.69V334.9Z"/><path class="cls-5" d="M1211.13,310.82s-.19-.3-2.7,4c0,0,1.79,1.43,2.69,1.25a16.82,16.82,0,0,0,2.79-1.09A32.5,32.5,0,0,0,1211.13,310.82Z"/></g><rect class="cls-15" x="1327.09" y="331.02" width="2.13" height="4.9" rx="0.5" ry="0.5"/><polygon class="cls-16" points="1333.64 325.37 1334.86 325.37 1332.63 318.87 1333.64 318.87 1328.16 306.59 1322.68 318.87 1323.69 318.87 1321.46 325.37 1322.68 325.37 1320.85 331.97 1328.16 331.97 1335.47 331.97 1333.64 325.37"/><path class="cls-32" d="M1329.81,310.29c.76,6.31,1.66,17.81-2,21.68h7.71l-1.83-6.6h1.22l-2.23-6.5h1Z"/><path class="cls-7" d="M1320.61,332.19c5.14.15,10.28,0,15.42-.08a.37.37,0,0,0,0-.74c-5.14.1-10.28.23-15.42.08-.47,0-.47.72,0,.74Z"/><path class="cls-7" d="M1322.61,319.27c1,0,2-.11,3-.06a20.84,20.84,0,0,0,2.85.12c.47,0,.95-.31,1.43-.31.7,0,1.26.44,1.94.45a8.82,8.82,0,0,1,1.78,0c.47.09.66-.62.2-.72a3.76,3.76,0,0,0-1.22-.2c-1.16,0-2.1-.26-3.25-.2s-2.21.11-3.35.06-2.2.13-3.34.12a.37.37,0,0,0,0,.74Z"/><path class="cls-7" d="M1321.35,325.7c1.3,0,2.57-.11,3.87-.08,1,0,2.11.24,3.15.17.68-.05,1.31-.33,2-.33a16.41,16.41,0,0,1,2.11.42,7,7,0,0,0,1,0,1,1,0,0,1,1.13,0,1,1,0,0,0,.38.08c.47.08.67-.63.2-.71s-.59-.28-1-.3c-.72-.05-1.23.34-2,.19a7.8,7.8,0,0,0-3.12-.19,21.5,21.5,0,0,1-3.93,0c-1.31,0-2.55.1-3.87.08a.37.37,0,0,0,0,.74Z"/><path class="cls-7" d="M1321,332a24.38,24.38,0,0,1,3.31,0,10.6,10.6,0,0,1,2.7,0c.13,0,.24.24.41.27.52.08.89-.2,1.41.17a.35.35,0,0,0,.37,0c1.09-.77,2.18-.37,3.35-.32.63,0,2.35-.16,2.51.11a.37.37,0,0,0,.64-.38c-.8-1.35-1.9-.52-3.13-.6a10,10,0,0,0-2.38,0c-.41.07-.91.34-1.24.35a21.88,21.88,0,0,1-2.43-.53c-.8-.07-1.65.13-2.45.12a21,21,0,0,0-3.27,0c-.47.06-.27.78.2.71Z"/><rect class="cls-15" x="1319.61" y="331.55" width="1.51" height="3.47" rx="0.5" ry="0.5"/><polygon class="cls-16" points="1324.25 327.56 1325.11 327.56 1323.53 322.96 1324.25 322.96 1320.37 314.26 1316.49 322.96 1317.21 322.96 1315.63 327.56 1316.49 327.56 1315.19 332.23 1320.37 332.23 1325.54 332.23 1324.25 327.56"/><path class="cls-32" d="M1321.54,316.88c.54,4.47,1.17,12.61-1.45,15.35h5.45l-1.29-4.67h.86l-1.58-4.6h.72Z"/><path class="cls-7" d="M1315,332.38c3.64.11,7.27,0,10.91-.05a.27.27,0,0,0,0-.53c-3.64.08-7.27.17-10.91.06a.26.26,0,0,0,0,.52Z"/><path class="cls-7" d="M1316.44,323.24c.7,0,1.4-.08,2.09-.05a15.17,15.17,0,0,0,2,.09c.34,0,.67-.22,1-.22s.89.31,1.37.32a5.9,5.9,0,0,1,1.26,0c.33.07.47-.44.14-.51a2.72,2.72,0,0,0-.86-.14c-.82,0-1.49-.19-2.31-.15a20.79,20.79,0,0,1-2.37.05c-.81,0-1.55.09-2.36.08a.27.27,0,0,0,0,.53Z"/><path class="cls-7" d="M1315.55,327.79c.92,0,1.82-.08,2.73-.06.73,0,1.5.17,2.23.12.49,0,.94-.23,1.43-.23a12.26,12.26,0,0,1,1.49.29,3.65,3.65,0,0,0,.74,0,.69.69,0,0,1,.79,0,.66.66,0,0,0,.27.06c.33.06.48-.44.14-.5s-.41-.2-.68-.22c-.51,0-.87.25-1.41.14a5.49,5.49,0,0,0-2.21-.13,16.26,16.26,0,0,1-2.79,0c-.92,0-1.8.07-2.73.06a.26.26,0,0,0,0,.52Z"/><path class="cls-7" d="M1315.27,332.25a18.27,18.27,0,0,1,2.34,0,7.18,7.18,0,0,1,1.91,0c.09,0,.17.17.29.19.37.06.63-.14,1,.12a.24.24,0,0,0,.26,0c.77-.55,1.55-.26,2.37-.23.45,0,1.67-.11,1.78.08a.26.26,0,0,0,.45-.27c-.57-.95-1.35-.36-2.22-.42a6.76,6.76,0,0,0-1.68,0c-.29.05-.65.24-.88.25a16.45,16.45,0,0,1-1.72-.38c-.56,0-1.16.1-1.73.09a13.7,13.7,0,0,0-2.31,0c-.34,0-.2.55.14.5Z"/><rect class="cls-15" x="1085.34" y="328.73" width="1.51" height="3.47" rx="0.5" ry="0.5"/><polygon class="cls-16" points="1089.98 324.74 1090.84 324.74 1089.26 320.14 1089.98 320.14 1086.1 311.44 1082.22 320.14 1082.94 320.14 1081.36 324.74 1082.22 324.74 1080.92 329.4 1086.1 329.4 1091.27 329.4 1089.98 324.74"/><path class="cls-32" d="M1087.27,314.06c.54,4.47,1.17,12.61-1.45,15.35h5.45l-1.29-4.68h.86l-1.58-4.59h.72Z"/><path class="cls-7" d="M1080.76,329.56c3.64.11,7.27,0,10.91-.05a.27.27,0,0,0,0-.53c-3.64.08-7.27.17-10.91.06a.26.26,0,0,0,0,.52Z"/><path class="cls-7" d="M1082.17,320.41c.7,0,1.4-.07,2.09,0a15.17,15.17,0,0,0,2,.09c.34,0,.67-.22,1-.22s.89.31,1.37.32a5.9,5.9,0,0,1,1.26,0c.33.07.47-.44.14-.51a3,3,0,0,0-.86-.15c-.82,0-1.49-.18-2.31-.14a23.37,23.37,0,0,1-2.37.05c-.81,0-1.55.09-2.36.08a.26.26,0,0,0,0,.52Z"/><path class="cls-7" d="M1081.28,325c.92,0,1.82-.08,2.73-.06.73,0,1.5.17,2.23.12.49,0,.94-.23,1.43-.23a12.26,12.26,0,0,1,1.49.29,4.54,4.54,0,0,0,.74,0,.69.69,0,0,1,.79,0,.66.66,0,0,0,.27.06c.33.06.48-.45.14-.5s-.41-.2-.68-.22c-.51,0-.87.25-1.41.14a5.32,5.32,0,0,0-2.21-.13,16.26,16.26,0,0,1-2.79,0c-.92,0-1.8.07-2.73.06a.26.26,0,0,0,0,.52Z"/><path class="cls-7" d="M1081,329.43a16.75,16.75,0,0,1,2.35,0,7.18,7.18,0,0,1,1.91,0c.09,0,.17.16.29.19.36.06.63-.15,1,.12a.24.24,0,0,0,.26,0c.77-.55,1.55-.26,2.37-.23.45,0,1.67-.11,1.78.08a.26.26,0,0,0,.45-.27c-.57-1-1.35-.37-2.22-.42a6.76,6.76,0,0,0-1.68,0c-.29.05-.65.24-.88.25a16.45,16.45,0,0,1-1.72-.38c-.56,0-1.16.1-1.74.09a14.72,14.72,0,0,0-2.3,0c-.34.05-.2.56.13.51Z"/><path class="cls-3" d="M1208.87,346.21l31.27-48.27s.6-1.34,1.65-1.45v49.72Z"/><path class="cls-4" d="M1274.71,346.21l-31.28-48.27s-.59-1.34-1.64-1.45v49.72Z"/><path class="cls-5" d="M1241.8,295.83s-.4-.63-5.71,8.36c0,0,3.79,3,5.7,2.62a36.65,36.65,0,0,0,5.9-2.29S1243.45,297.28,1241.8,295.83Z"/><path class="cls-3" d="M1253.41,347.58l25.17-75.35s.48-2.1,1.33-2.27v77.62Z"/><path class="cls-4" d="M1306.41,347.58l-25.18-75.35s-.48-2.1-1.32-2.27v77.62Z"/><path class="cls-5" d="M1279.74,270s-.92-.41-3,7.62c0,0,1.64,2.83,3.13,2.55s3.14-2.44,3.14-2.44S1281,269.1,1279.74,270Z"/><path class="cls-7" d="M1253,350.78h1.39l-1.39.36Z"/><path class="cls-7" d="M1339.43,351.14c-2.25.06-4.59.06-7,0Z"/><path class="cls-7" d="M1366.69,330.74V399.6H960.62s3.75-68.24,4.41-68.41a187,187,0,0,1,62.18-4.79c8.41.85,26.39,2.21,39.85,3,4.67.26,8.8.45,11.8.53,3.48.09,6.81.08,10,0,3.72-.1,7.3-.29,10.79-.53,13.2-.93,25.34-2.65,40.49-2.89,32.37-.51,54.63-5.28,85.75,2.89,42.44,11.13,117.41,3.67,136.36,1.81C1364.88,330.93,1366.43,330.71,1366.69,330.74Z"/><rect class="cls-15" x="1195.9" y="334.18" width="0.51" height="3.74" rx="0.26" ry="0.26"/><path class="cls-16" d="M1191.28,334.83c-.4.1,9.25,0,9.25,0a13.83,13.83,0,0,1-3.49-8h1.68s-1.8-1-2.82-7.18c0,0-.32,4.94-2.65,6.89l1.58.12S1193.66,334.2,1191.28,334.83Z"/><rect class="cls-15" x="1187.07" y="352.38" width="0.89" height="6.49" rx="0.44" ry="0.44"/><path class="cls-16" d="M1179.06,353.51c-.68.18,16,0,16,0a24,24,0,0,1-6-13.84H1192s-3.13-1.79-4.89-12.44c0,0-.56,8.56-4.59,11.95l2.72.19S1183.19,352.41,1179.06,353.51Z"/><rect class="cls-15" x="1300.41" y="335.92" width="0.37" height="2.72" rx="0.19" ry="0.19"/><path class="cls-16" d="M1297.06,336.39c-.28.08,6.71,0,6.71,0a10,10,0,0,1-2.53-5.78h1.22s-1.3-.75-2-5.21c0,0-.23,3.58-1.92,5l1.14.08S1298.79,335.94,1297.06,336.39Z"/><path class="cls-8" d="M1271.85,333.44c3.16,1.2,3.08.84,7.35,1.82,4.65,1.06,9.41,1.88,13.64,4.24,2.19,1.22,4.35,2.5,6.5,3.8a64.41,64.41,0,0,1,7.07,4.78,20,20,0,0,1-5.84-.66,7.84,7.84,0,0,1-2.31-1.16c-1.91-1.25-3.81-2.53-5.84-3.59a43.45,43.45,0,0,0-13.2-4.17c-3.12-.51-6.36-.83-9.18-2.27-2-1-4.85-2.74-8.73-5.07C1265.25,332.34,1271.85,333.44,1271.85,333.44Z"/><ellipse class="cls-13" cx="1300.74" cy="351.46" rx="32.28" ry="3.92"/><path class="cls-55" d="M1310.53,341.54s3-.21,2.13-3.08l-.29.25a1.5,1.5,0,0,1-.07,1.45,1.67,1.67,0,0,1-1.53.87l-.24.51Z"/><path class="cls-56" d="M1310,344.56l-.49-.33s-1.81.63-1.64,2.21,2,1.83,2,1.83l.08-.3s-1.89-.57-1.59-1.72a3,3,0,0,1,1.67-1.69Z"/><path class="cls-56" d="M1310.8,345.16s-.11,5.25,0,6l-.52-.09s0-5.3,0-6l.44.11Z"/><path class="cls-55" d="M1310.17,340.84c1.22.05,1.14,1,1.07,2.46a2.8,2.8,0,0,0,1.31,2.38s-4,.29-5.1-1.31a2,2,0,0,0,1.65-1.4c.25-1.17.16-2.17,1.07-2.13Z"/><path class="cls-56" d="M1310.23,338.54c1.2.06,1.12,2.34,0,2.27-1.35-.08-1-2.31,0-2.27Z"/><path class="cls-7" d="M1310.21,350.09l.78.09s-.21.9.08,1.06.86.16.73.49-1.92-.21-1.92-.21l.33-1.43Z"/><path class="cls-57" d="M1309.81,351.61l.09,0,.24.08a5,5,0,0,0,.75.2l.41.05h.18l.17,0,.14,0,.1,0,.06,0h0l0,0-.1.06-.14,0-.17,0h-.2a1.91,1.91,0,0,1-.41,0,5.54,5.54,0,0,1-.77-.15l-.35-.1,0-.14Z"/><path class="cls-58" d="M1309.51,339.43s.14,1.65-.28,1.52-.46-.77-.46-.77.45,0,.59-.73l.15,0Z"/><path class="cls-58" d="M1310.9,339.42s0,1.71.41,1.66.36-.69.36-.69-.49.07-.58-.88l-.19-.09Z"/><path class="cls-59" d="M1309.3,339.56a2.93,2.93,0,0,1,1.8.08s.14-1.31-.85-1.4-1,1.32-1,1.32Z"/><path class="cls-55" d="M1310.12,337.72a.32.32,0,1,1,0,.63c-.5,0-.35-.63,0-.63Z"/><path class="cls-56" d="M1310,340.54s.06.35-.08.49a.73.73,0,0,0,.68.06,1.73,1.73,0,0,1,0-.55Z"/><path class="cls-55" d="M1309.68,341s-2-.42-1.53-2l-.36-.19s-.76,2,1.72,2.57l.17-.39Z"/><path class="cls-56" d="M1312.37,338.71s-.65,0-.67-.1.45-.13.45-.13-.54-.36-.5-.44.57.28.57.28-.43-.47-.35-.5.45.37.45.37-.13-.47,0-.47.38.74.38.74l-.29.25Z"/><path class="cls-56" d="M1308.15,339s.63-.13.63-.22-.46,0-.46,0,.47-.46.42-.52-.52.37-.52.37.34-.54.26-.56-.38.45-.38.45,0-.49,0-.47-.23.8-.23.8l.33.19Z"/><path class="cls-7" d="M1309.05,347.35l-.09.85s.66,0,.71.28-.1.89.28.94.61-1.88.61-1.88l-1.51-.19Z"/><path class="cls-57" d="M1310.85,347.62l0,.33a7.08,7.08,0,0,1-.15.71,2.38,2.38,0,0,1-.29.66l-.09.1-.08.07,0,0h0l0,0,.07-.07a.52.52,0,0,0,.08-.11,2.12,2.12,0,0,0,.23-.66,5.65,5.65,0,0,0,.11-.71c0-.19,0-.32,0-.32Z"/><path class="cls-57" d="M1294.64,346.41l.08.06a1.45,1.45,0,0,1,.23.15,4.24,4.24,0,0,1,.62.51,2.15,2.15,0,0,1,.29.32,1.4,1.4,0,0,1,.19.33,1,1,0,0,1,0,.14l0,.06v.13a.28.28,0,0,0,0-.08v-.11a.49.49,0,0,0-.06-.13,1.82,1.82,0,0,0-.5-.6,4.4,4.4,0,0,0-.65-.46l-.22-.13-.09-.05.08-.14Z"/><path class="cls-56" d="M1290.68,348.13s2.07,1.34,3.51-.19l-.33-.26s-1,1-2.94.1l-.24.35Z"/><path class="cls-7" d="M1293.58,347.8l.5.47s.41-.86.71-.7.8.74.94.31-1.35-1.29-1.35-1.29l-.8,1.21Z"/><path class="cls-56" d="M1290.13,348.8a18.94,18.94,0,0,1,.44,3.65h.45a19.09,19.09,0,0,0-.49-3.8l-.4.15Z"/><path class="cls-59" d="M1288.53,345.5c.3-.26.77.08,1.55.8s1.08.89,2,.66a2.41,2.41,0,0,1-2.09,2.81s-2.64-3.27-1.47-4.27Z"/><path class="cls-60" d="M1288.79,344.45c.24-.19.32.06.56.19s.61-.23.62-.33a1.19,1.19,0,0,1-.7.73c-.49.13-.62-.49-.48-.59Z"/><path class="cls-56" d="M1287.87,343.45a1.16,1.16,0,0,1,.33,2.28c-1.34.16-1.33-2.19-.33-2.28Z"/><path class="cls-61" d="M1288.31,342.58a.24.24,0,0,1,0,.47c-.36,0-.3-.47,0-.47Z"/><path class="cls-60" d="M1288.52,344.07s.16.74.53.95a1.15,1.15,0,0,0,0-.85l-.53-.1Z"/><path class="cls-55" d="M1287.16,344.15a2.08,2.08,0,0,1,2,.3s.09-1.61-1.07-1.65c-.91,0-.92,1.29-.92,1.29"/><path class="cls-56" d="M1288.28,345.53a.7.7,0,0,1,.14.36.54.54,0,0,0,.43-.2l-.18-.42-.39.26Z"/><path class="cls-59" d="M1288.52,347a3.06,3.06,0,0,1-2.39-1.22l.24-.24a3.92,3.92,0,0,0,2.07,1l.08.43Z"/><path class="cls-59" d="M1289.23,346a6.55,6.55,0,0,1,3-.76l-.08.41a5.9,5.9,0,0,0-2.76.71l-.17-.36Z"/><path class="cls-56" d="M1292.24,345.19a2.25,2.25,0,0,1,.74.11l0,0s0,0-.06,0a1.13,1.13,0,0,1-.32-.05s.51.18.44.27-.39-.08-.48-.12a.83.83,0,0,1,.28.25.14.14,0,0,1,0,.06l0,0a.18.18,0,0,1-.16,0c-.12,0-.2-.15-.3-.22a1.23,1.23,0,0,0,0,.41c-.16,0-.2-.41-.2-.41Z"/><path class="cls-56" d="M1286.37,345.52c0-.07.3-.53.11-.52a.75.75,0,0,0-.23.28s-.18-.53-.26-.48,0,.39.08.48c0-.07-.21-.4-.32-.33s.09.32.12.39-.28-.19-.35-.12.61.54.61.54Z"/><path class="cls-7" d="M1290.28,351.86l1,.05-.15,1.66s-1.8.24-1.76-.29.88-.15.93-.54a4.6,4.6,0,0,0,0-.88Z"/><path class="cls-57" d="M1289.09,353.47a1.82,1.82,0,0,0,.29.14l.15.06.18.05.18,0,.2,0h.55l.16,0,.13,0,.1,0,.09,0,0,.15-.09,0h-.1l-.14,0h-.55l-.19,0-.2,0-.19-.06a1.15,1.15,0,0,1-.17-.06l-.15-.06a1.72,1.72,0,0,1-.28-.17Z"/><path class="cls-62" d="M1189.71,329.63h0m0,0h0m0,0h0m0,0h0m0,0h0m0,0h0m0,0h0"/><path class="cls-63" d="M1182.92,329.19h0"/><path class="cls-64" d="M1182.68,329.18h0m-.14,0h0m0,0h0m0,0h0m0,0h0"/><path class="cls-65" d="M1188,324.17h0m0,0h0m0,0v0m0,0h0m0,0h0m0,0h0m0,0h0m0,0v0m0,0h0m0,0h0m0,0v0m0,0h0m0,0h0m0,0h0m0,0h0m0,0h0m0,0h0m0,0h0m0,0h0m0,0h0m0,0h0m0,0h0m0,0h0m0,0h0"/><rect class="cls-15" x="1336.46" y="338.46" width="1.51" height="3.47" rx="0.5" ry="0.5"/><polygon class="cls-16" points="1341.09 334.46 1341.95 334.46 1340.37 329.87 1341.09 329.87 1337.21 321.17 1333.33 329.87 1334.05 329.87 1332.47 334.46 1333.33 334.46 1332.04 339.14 1337.21 339.14 1342.38 339.14 1341.09 334.46"/><path class="cls-32" d="M1338.38,323.79c.54,4.47,1.17,12.61-1.45,15.35h5.45l-1.29-4.67h.86l-1.58-4.6h.72Z"/><path class="cls-7" d="M1331.87,339.29c3.64.11,7.27,0,10.91-.05a.27.27,0,0,0,0-.53c-3.64.08-7.27.17-10.91.06a.26.26,0,0,0,0,.52Z"/><path class="cls-7" d="M1333.28,330.14c.7,0,1.4-.07,2.1,0a15,15,0,0,0,2,.09c.34,0,.67-.22,1-.22s.89.31,1.37.32a5.9,5.9,0,0,1,1.26,0c.33.07.47-.44.14-.51a3,3,0,0,0-.86-.15c-.82,0-1.49-.18-2.3-.14a23.63,23.63,0,0,1-2.38.05c-.81,0-1.55.09-2.36.08a.26.26,0,0,0,0,.52Z"/><path class="cls-7" d="M1332.39,334.7c.92,0,1.82-.08,2.74-.06.72,0,1.5.17,2.23.12.48,0,.93-.23,1.42-.23a11.9,11.9,0,0,1,1.49.29,3.64,3.64,0,0,0,.74,0,.73.73,0,0,1,.8,0,.6.6,0,0,0,.27.06c.33.06.47-.45.14-.5s-.42-.2-.69-.22c-.51,0-.87.25-1.41.14a5.32,5.32,0,0,0-2.21-.13,16.14,16.14,0,0,1-2.78,0c-.93,0-1.81.07-2.74.06a.26.26,0,0,0,0,.52Z"/><path class="cls-7" d="M1332.11,339.16a18.27,18.27,0,0,1,2.34,0,7.18,7.18,0,0,1,1.91,0c.09,0,.17.16.29.19.37.06.63-.15,1,.12a.24.24,0,0,0,.26,0c.77-.55,1.55-.26,2.37-.23.45,0,1.67-.11,1.78.08a.26.26,0,0,0,.45-.27c-.57-1-1.34-.37-2.22-.42a6.76,6.76,0,0,0-1.68,0c-.29.05-.64.24-.88.25a17,17,0,0,1-1.72-.38c-.56,0-1.16.1-1.73.09a14.84,14.84,0,0,0-2.31,0c-.34.05-.19.56.14.51Z"/><rect class="cls-15" x="1097.63" y="325.64" width="1.93" height="4.45" rx="0.5" ry="0.5"/><polygon class="cls-16" points="1103.57 320.51 1104.67 320.51 1102.65 314.62 1103.57 314.62 1098.6 303.48 1093.62 314.62 1094.54 314.62 1092.52 320.51 1093.62 320.51 1091.96 326.5 1098.6 326.5 1105.23 326.5 1103.57 320.51"/><path class="cls-32" d="M1100.09,306.83c.69,5.73,1.51,16.16-1.85,19.67h7l-1.66-6h1.1l-2-5.89h.92Z"/><path class="cls-7" d="M1091.75,326.7c4.66.14,9.33,0,14-.07a.34.34,0,0,0,0-.67c-4.66.09-9.33.21-14,.07-.43,0-.43.66,0,.67Z"/><path class="cls-7" d="M1093.56,315c.89,0,1.79-.1,2.68-.05a20.4,20.4,0,0,0,2.59.11c.43,0,.86-.27,1.3-.28.64,0,1.15.4,1.76.41a7.31,7.31,0,0,1,1.62,0c.42.09.6-.56.17-.65a3.57,3.57,0,0,0-1.1-.19c-1,0-1.91-.23-2.95-.18s-2,.11-3,.06-2,.12-3,.1a.34.34,0,0,0,0,.67Z"/><path class="cls-7" d="M1092.42,320.82c1.17,0,2.33-.11,3.5-.08.93,0,1.93.22,2.86.15.63,0,1.2-.29,1.83-.29a13.43,13.43,0,0,1,1.91.37,5.88,5.88,0,0,0,.94,0,.92.92,0,0,1,1,0,.77.77,0,0,0,.34.08c.43.07.61-.58.18-.65s-.53-.25-.87-.28c-.66,0-1.12.32-1.82.18a6.88,6.88,0,0,0-2.82-.17,21.41,21.41,0,0,1-3.58,0c-1.18,0-2.3.09-3.5.07a.34.34,0,0,0,0,.68Z"/><path class="cls-7" d="M1092.05,326.53a21.59,21.59,0,0,1,3,0,9.13,9.13,0,0,1,2.45,0c.12,0,.22.21.37.24.47.08.81-.18,1.28.16a.34.34,0,0,0,.34,0c1-.71,2-.34,3-.29.58,0,2.14-.15,2.28.09s.81,0,.58-.34c-.73-1.23-1.72-.47-2.84-.54a8.7,8.7,0,0,0-2.16,0c-.37.06-.83.31-1.12.31a16.4,16.4,0,0,1-2.21-.48c-.72-.05-1.49.12-2.22.11a18.28,18.28,0,0,0-3,0c-.43.06-.25.71.17.65Z"/><rect class="cls-10" x="1146.98" y="323.86" width="26.64" height="12.94"/><path class="cls-14" d="M1147,332.88c8.86-.91,17.76,0,26.64-.22.11,0,.11-.18,0-.18-8.88.27-17.78-.68-26.64.22-.11,0-.11.19,0,.18Z"/><path class="cls-14" d="M1147,329.36c8.86-.88,17.76,0,26.64-.22a.13.13,0,0,0,0-.25c-8.88.26-17.78-.66-26.64.22-.16,0-.16.26,0,.25Z"/><path class="cls-14" d="M1147,326.24q13.3-.69,26.64-.24c.2,0,.2-.31,0-.32q-13.32-.45-26.64.24c-.21,0-.21.33,0,.32Z"/><path class="cls-7" d="M1175.63,324c-5.74,0-11.48-.15-17.23-.09-2.77,0-5.52.15-8.29.26a15,15,0,0,1-4.38-.12c-1.75-.43-.36-1.61.43-2.16,1.76-1.23,1.68-3.48,2.44-5.24,1-2.31,3.13-2.95,5.56-3.1,4.47-.29,9-.76,13.43-.76,2.08.48,3.3,2.46,4.45,4a33,33,0,0,1,3.62,6.17c.22.49.35,1.21-.16,1.42a1.14,1.14,0,0,1-.45.06l-29-.26c-.3,0-.65,0-.8-.29a.8.8,0,0,1,.16-.77l5.07-8.45a2.54,2.54,0,0,1,.76-.9,2.69,2.69,0,0,1,1.47-.27l9.87,0c1.55,0,3.1.05,4.65,0,.35,0,2.09-.31,2.27,0Z"/><path class="cls-7" d="M1175.63,323.23c-5.42,0-10.85-.13-16.27-.09-2.62,0-5.25.11-7.87.21-1.18,0-2.39.17-3.58.15-1.86,0-2.49.11-1.24-1.14a8.19,8.19,0,0,0,2.13-4c.88-2.84,2.46-3.83,5.36-4.12,2.71-.27,5.45-.42,8.16-.58,1.26-.07,2.58-.21,3.84-.16,2.23.1,3.21.91,4.47,2.57a32,32,0,0,1,3.83,6l.2.39c.73,1,.7,1.36-.11,1.2-.46.24-1.45,0-2,0l-4.5,0-17-.15c-1,0-3.56.39-4.5,0s-.33.6-.26-.39c0-.52.73-1.23,1-1.69,1.4-2.34,3-6.76,5.9-7.15,4.91-.67,10,.48,15-.07,1-.12.79-.1,1.43,1l2.07,3.54,3.3,5.64a.72.72,0,0,0,1.25-.73q-2.19-3.73-4.37-7.48a16.35,16.35,0,0,0-1.68-2.87c-.82-.86-1.82-.52-3-.45-3.49.23-7.07,0-10.57,0-2.55,0-5.17-.71-6.81,1.52-1.14,1.56-2,3.4-3,5.07-.65,1.08-1.93,2.5-2.21,3.76-.38,1.72,1.13,1.73,2.45,1.77,8,.23,16,.14,24,.21,1.34,0,4.81.83,5.46-.9a2.55,2.55,0,0,0-.23-1.63,21.09,21.09,0,0,0-3.1-5.43c-1.2-1.74-2.54-3.94-4.57-4.8-2.59-1.1-6.91-.11-9.66.09-4.69.35-9.86-.14-11.47,5.22a18.57,18.57,0,0,1-.54,1.9c-.54,1.28-1.24,1.49-2,2.38a2,2,0,0,0-.72,1.56c.32,2.13,4.56,1.43,5.92,1.37,8.51-.39,17-.19,25.52-.18A.73.73,0,0,0,1175.63,323.23Z"/><path class="cls-66" d="M1158.18,336.8c0-4.39,1.34-8,3-8s3,3.57,3,8Z"/><path class="cls-67" d="M1168.17,311.52c.76-.91,2.87-5.85-1.61-11.7,0,0-3.24-3.07,0-3.5,0,0-2.28-4.65,1.7-5s4,3.69,4,3.69,3.6.87,3.26,4.08-1.82,3.06-1.87,4.16,2.4,2.34,1.58,4.17S1170,312,1170,312Z"/><polygon class="cls-26" points="1167.84 314.96 1167.84 310.72 1170.65 310.72 1170.65 319.77 1167.84 314.96"/><path class="cls-7" d="M1146.1,338.71c5.39-.3,10.75.06,16.11,0,3.36-.05,10.36,1.47,13-1,1.41-1.32-.71-3.44-2.12-2.12-1,.91-5.25.18-6.7.13-2.2-.08-4.41,0-6.6-.12-4.51-.2-9.18-.11-13.69.14-1.92.11-1.93,3.11,0,3Z"/><path class="cls-8" d="M1181.52,381.85c-.48-3.15-2.94-5.1-4.65-6.77a19,19,0,0,0-6.6-3.79c-16.78-6.47-35.41-6.36-52.62-11.58a11.77,11.77,0,0,1-3.91-1.78,4.35,4.35,0,0,1-1.82-3.71c.18-1.7,1.64-3,3.1-3.84,3.85-2.29,8.37-3.1,12.76-4q8.87-1.85,17.56-4.48a50.05,50.05,0,0,0,8.41-2.91,37,37,0,0,1,5.56-2.47,4.25,4.25,0,0,1,.87-.2,5.71,5.71,0,0,1,1.31.05c.66.06,1.58,0,2.4,0-6.74,2.71-17,7.23-23.7,9.94-2.52,1-5.43,2.52-5.7,5.23a5.11,5.11,0,0,0,2.61,4.58,15.19,15.19,0,0,0,5.26,1.7l21.41,4.09c6,1.15,12.08,2.31,17.68,4.77a58.74,58.74,0,0,1,9.29,5.27c3,2,6,4.34,7.76,7.53,2.17,4,2.1,8.72,2.19,13.24a54.86,54.86,0,0,0,.31,6.9c-6.29.05-12.34,0-18.62,0C1182.38,399.59,1182,385,1181.52,381.85Z"/><path class="cls-27" d="M560.58,341.14c0,6.34-2.64,8.87-5.89,8.87s-5.88-2.53-5.88-8.87,2.63-18,5.88-18,5.89,11.68,5.89,18"/><path class="cls-28" d="M554.69,350h0a5.12,5.12,0,0,0,.56,0h0a5.12,5.12,0,0,1-.56,0"/><path class="cls-28" d="M554.67,350h0m0,0h0m0,0h0m0,0h0m0,0h0m0,0h0m0,0h0m0,0h0"/><path class="cls-29" d="M554.69,350h-.16a5.14,5.14,0,0,1-4.67-3.18,5.11,5.11,0,0,0,3,.9c3.25,0,5.89-2.53,5.89-8.87,0-4.52-1.34-11.75-3.29-15.53a3.77,3.77,0,0,1,1.22,1.21,19.69,19.69,0,0,1,2.31,5.63h0v0h0v0h0v0h0v0h0a47.4,47.4,0,0,1,1.55,10h0v0h0v0h0v0h0v0h0v.1h0v0h0v0h0v0h0v.06h0v0h0v0h0v0h0c0,5-1.64,7.62-3.92,8.51a4.76,4.76,0,0,1-1.41.33,5.12,5.12,0,0,1-.56,0"/><path class="cls-7" d="M554.69,323.12c-1.36,0-2.62,2.06-3.62,4.91a1.4,1.4,0,0,0,.59-.15c.72-.48,1-2.34,2-2.14.14.47,0,1.68.55,1.7s.56-.81.89-1.14c.15.18.19.57.38.69.39.26.84-.18,1.25-.09s.83,1.1,1.54,1c-1-2.8-2.23-4.81-3.58-4.81Z"/><polygon class="cls-30" points="555.43 354.7 554.65 354.7 554.65 341.66 555.43 341.66 555.43 354.7 555.43 354.7"/><polygon class="cls-30" points="555.11 345.99 554.65 345.36 556.93 343.71 557.38 344.34 555.11 345.99 555.11 345.99"/><polygon class="cls-30" points="555.32 347.65 554.77 348.2 552 345.4 552.55 344.85 555.32 347.65 555.32 347.65"/><path class="cls-68" d="M1771,349.45a.21.21,0,0,1-.18-.09.24.24,0,0,1,0-.35.27.27,0,0,1,.15-.05.21.21,0,0,1,.18.09.23.23,0,0,1,0,.34.22.22,0,0,1-.15.06"/><path class="cls-68" d="M1769.72,345.78a.3.3,0,0,1-.24-.12.32.32,0,0,1,0-.46.27.27,0,0,1,.2-.08.3.3,0,0,1,.24.12.33.33,0,0,1,0,.46.34.34,0,0,1-.21.08"/><path class="cls-68" d="M1762.52,348.44a.3.3,0,0,1-.24-.12.33.33,0,0,1,0-.47.31.31,0,0,1,.2-.07.33.33,0,0,1,.25.12.34.34,0,0,1,0,.46.34.34,0,0,1-.21.08"/><path class="cls-68" d="M1766.83,349.05a.25.25,0,0,1,0-.5.25.25,0,0,1,0,.5"/><path class="cls-69" d="M1765.87,335a7.09,7.09,0,0,1-.36,1.14c-.09,0-1.74-1.14-1.74-1.14s1,.81,1.19,1.06a.31.31,0,0,1-.07.53c-.14.06-.39-.24-.65-.37s-1-.37-1-.37a9.23,9.23,0,0,0,.89.51c.5.25.57.88.52,1.47a2.44,2.44,0,0,1-.92,1.51,14.86,14.86,0,0,1-1.35.83,7.87,7.87,0,0,0-.89.72s.09-.21.22-.6a1.79,1.79,0,0,0-.09-.95,1.89,1.89,0,0,1-.29,1.17.65.65,0,0,0-.14.55c0,.09-.4.38-.4.38h.07a4.72,4.72,0,0,0,.49.31l.2-.24a6.05,6.05,0,0,1,.42-.5c.26-.28.55-.25.86-.43a1.58,1.58,0,0,0,.49-.46,11.42,11.42,0,0,1,1.1-.45c.81-.29.8-1.52.8-1.52,0,.56-.75,1.07-.75,1.07.47-.42,1.12-2.74,1.28-3.09a3.45,3.45,0,0,0,.1-1.13Z"/><path class="cls-69" d="M1754.81,335a7.09,7.09,0,0,0,.36,1.14c.09,0,1.74-1.14,1.74-1.14s-1,.81-1.19,1.06a.3.3,0,0,0,.07.53c.14.06.39-.24.65-.37s1-.37,1-.37a9.23,9.23,0,0,1-.89.51c-.5.25-.57.88-.52,1.47a2.44,2.44,0,0,0,.92,1.51,13.6,13.6,0,0,0,1.35.83,7.87,7.87,0,0,1,.89.72,4.87,4.87,0,0,1-.22-.6,1.69,1.69,0,0,1,.09-.95,2,2,0,0,0,.28,1.17.63.63,0,0,1,.15.55c0,.09.4.38.4.38h-.07a4.72,4.72,0,0,1-.49.31l-.21-.24a4.78,4.78,0,0,0-.41-.5c-.26-.28-.55-.25-.86-.43a1.58,1.58,0,0,1-.49-.46,11.42,11.42,0,0,0-1.1-.45c-.81-.29-.8-1.52-.8-1.52,0,.56.75,1.07.75,1.07-.47-.42-1.12-2.74-1.28-3.09a3.45,3.45,0,0,1-.1-1.13Z"/><path class="cls-70" d="M1773.78,351.8c-.11-.34-.93-1.15-1.29-1.85s.4-1.56.52-1.73.52-.26.7-.72,0-.78-.44-1.16a6.23,6.23,0,0,0-2.89-1.47c-1.19-.14-6-.15-6.67-.12s-1.47.23-1.82.05c-.12-.06-.21-.2-.29-.46h0l0-.1h0a8.76,8.76,0,0,1-.21-.94c.25-.48.5-.86.5-.86a1.88,1.88,0,0,0,1.39-1.09c.2-.46.4-.63-.2-.52a2.13,2.13,0,0,0-1.22.75.54.54,0,0,1-.4.21,2.75,2.75,0,0,1-.54-.4c-.15,0-.28.16-.28.16h-.54c-.08-.12-.28-.09-.28-.09a4.26,4.26,0,0,1-.56.35c-.07,0-.46-.47-.77-.73a5.76,5.76,0,0,0-1.3-.61c-.17,0-.06.4.37,1.13a1.58,1.58,0,0,0,1.18.78c.12.34.42,1,.42,1s0,.7.07,1.54h0a6.59,6.59,0,0,0,.28,1.3,3.66,3.66,0,0,0,1.11,1.69.91.91,0,0,0,0,.63,5.15,5.15,0,0,0,1,1.35,17.63,17.63,0,0,1-.17,3,11.5,11.5,0,0,1-.41,2.1,12.55,12.55,0,0,0-.38,1.37h1.06a1.25,1.25,0,0,1-.2-.47,19,19,0,0,1,.44-2.08c.16-.56.81-2.65,1-3.26s1.16-.42,1.43-.33.81,1.55.94,2a6.15,6.15,0,0,0,.54,1.25,12.39,12.39,0,0,1,.48,2,1.53,1.53,0,0,1-.22.91h1a1.56,1.56,0,0,0-.12-1.13,9.65,9.65,0,0,1-.67-2.61c-.06-.64-.36-2.65-.36-2.65a17.68,17.68,0,0,0,3.32-.38c.2.49,1.35,2,1.66,2.75s-.46,2-.71,2.52-.88,1.5-.88,1.5h.79s.14-.06.36-.48,1.75-3.73,1.76-3.82a1.9,1.9,0,0,0-.21-.45,4.94,4.94,0,0,1,1,1.42,14.09,14.09,0,0,1,0,2.51,2.59,2.59,0,0,1-.47.82h.56a.94.94,0,0,0,.55-.77c0-.33.22-3.47.1-3.81Z"/><path class="cls-69" d="M1758.68,342a2.69,2.69,0,0,1-.58-.67c-.13-.3-.65-.43-.65-.43a1.5,1.5,0,0,1,.36.45c.09.21.63.78.87.65Z"/><path class="cls-69" d="M1761.85,342.11a2.61,2.61,0,0,0,.57-.66c.14-.3.65-.43.65-.43a1.68,1.68,0,0,0-.36.45c-.09.21-.62.77-.86.64Z"/><path class="cls-71" d="M1759.53,342.59c0,.13-.07.24-.15.24s-.15-.11-.15-.24.07-.23.15-.23.15.1.15.23Z"/><path class="cls-71" d="M1761.33,342.59c0,.13-.06.24-.15.24s-.14-.11-.14-.24.06-.23.14-.23.15.1.15.23Z"/><path class="cls-71" d="M1760.24,344.09a.48.48,0,0,0,.5-.37h0a.43.43,0,0,1-.45.34.46.46,0,0,1-.38-.17.61.61,0,0,1-.08-.17h0a.48.48,0,0,0,.5.37Z"/><polygon class="cls-71" points="1760.21 344.05 1760.27 344.05 1760.27 343.76 1760.21 343.76 1760.21 344.05 1760.21 344.05"/><path class="cls-72" d="M1763.11,348.8a4.49,4.49,0,0,0,1.24,1.44l-.15,0a4.24,4.24,0,0,1-1.15-1.36s0-.08.06,0Z"/><path class="cls-72" d="M1765.1,347.47a8.22,8.22,0,0,0,.91,1.5.61.61,0,0,1,.15.47,2.66,2.66,0,0,1-.16.55h-.07v0a1.79,1.79,0,0,0,.17-.6c0-.22-.19-.43-.3-.59a6.24,6.24,0,0,1-.76-1.29s0-.06.06,0Z"/><path class="cls-72" d="M1769.26,349.65a0,0,0,0,1,0,0l0,0Z"/><path class="cls-72" d="M1769.16,349.63c-.58-.79-.07-1.88.47-2.56,0,0,.07,0,0,.05-.52.65-1,1.74-.45,2.49l-.07,0Z"/><path class="cls-72" d="M1772.05,351.74c-.38-.46-.87-1.12-.69-1.75.13-.47.51-.82.66-1.28a1.2,1.2,0,0,0-.42-1.11,0,0,0,0,1,.05-.05,1.74,1.74,0,0,1,.44.74c.12.4-.15.78-.35,1.11a2.41,2.41,0,0,0-.34.68,1.12,1.12,0,0,0,.17.81,3.59,3.59,0,0,0,.53.8v0l-.09-.09.07.12Z"/><path class="cls-69" d="M1759.87,343.41a.67.67,0,0,1,.37-.1.64.64,0,0,1,.36.1c.1.1-.13.42-.36.42s-.47-.32-.37-.42Z"/></svg>