<svg id="Layer_1" data-name="Layer 1" xmlns="http://www.w3.org/2000/svg" viewBox="0 0 142.91 68.11"><defs><style>.cls-1,.cls-15{fill:#e6e6e5;}.cls-1,.cls-11,.cls-12,.cls-13,.cls-14,.cls-16,.cls-17,.cls-18,.cls-19,.cls-2,.cls-20,.cls-21,.cls-22,.cls-3,.cls-5,.cls-6,.cls-7,.cls-8,.cls-9{fill-rule:evenodd;}.cls-10,.cls-2{fill:#fff;}.cls-3{fill:#a3532f;}.cls-4{fill:#666767;}.cls-5{fill:#7f8080;}.cls-6{fill:#4f4f4f;}.cls-7{fill:#9f5e26;}.cls-8{fill:#bb7a38;}.cls-9{fill:#f58a7e;}.cls-11{fill:#363736;}.cls-12{fill:#dbb773;}.cls-13{fill:#d3514a;}.cls-14{fill:#010101;}.cls-16{fill:#f7ecc6;}.cls-17{fill:#9a1e2f;}.cls-18{fill:#efc887;}.cls-19{fill:#ca7f59;}.cls-20{fill:#404040;}.cls-21{fill:#e69e87;}.cls-22{fill:#e6ac6f;}.cls-23{fill:#c3c3c3;}.cls-24{fill:#c89256;}</style></defs><title>_GameSanta</title><path class="cls-1" d="M21.13,28.57c.42,1.63,2.44,2.9,3.93,3.23L22,37.07a.6.6,0,0,0,.21.82.61.61,0,0,0,.83-.21l3.63-6.16a.66.66,0,0,0,.06-.32.61.61,0,0,0-.61-.59.6.6,0,0,1-.62-.58v-.42a3.19,3.19,0,0,1-1.34-1.12l-3,.08Z"/><path class="cls-2" d="M25.7,20.4a1.58,1.58,0,0,1,1.42-.51,1.59,1.59,0,0,1-.5,1.43,1.56,1.56,0,0,1-1.41.51,1.55,1.55,0,0,1,.49-1.43Z"/><path class="cls-2" d="M18.59,22l6.62-.19L30,28.51a.6.6,0,0,0,.84.14.6.6,0,0,1,.83.15h0l4.16,5.83a.6.6,0,1,1-1,.69L31,30c-1.85,1.32-6.26-.18-6.94-1.53l-10.67.31L8.34,29l.17,5.59a.61.61,0,0,1-.59.62.59.59,0,0,1-.61-.58l-.18-6.2a.6.6,0,0,1,.58-.62l4.68-.13a7,7,0,0,1-.33-2.06c-.08-2.72.58-6.67.88-10.14l-3.25-.68a.85.85,0,0,1-.87-.91l0-1.47,4.1-.12,2.52-.08,1.86,9.89,1.33,0Z"/><path class="cls-1" d="M17.81,12.1a1.67,1.67,0,0,1-1.49,1.09,1.65,1.65,0,0,1-1.55-1l3-.09Z"/><path class="cls-1" d="M13.67,33.79a.59.59,0,0,1-.17-.48l-.13-4.51,1.2,0,.12,4.36L18.57,37a.6.6,0,0,1,0,.85.61.61,0,0,1-.85,0l-4-4.08Z"/><path class="cls-3" d="M18.56,21.05A1,1,0,1,1,18.62,23a1,1,0,0,1-.06-1.94Z"/><path class="cls-4" d="M18.89,9.35h0a1.17,1.17,0,0,1-.11.56h.27a1.23,1.23,0,0,0,.88-.4,1.25,1.25,0,0,0,.35-.9h0L20.2,6.05a.34.34,0,1,1,.68,0L21,8.58h0a1.92,1.92,0,0,1-.42,1.28l1,0a.33.33,0,0,1,.34.33.34.34,0,0,1-.32.35l-2.5.07h0l-1.37,0h0l-2.08.06h0a.52.52,0,0,0-.38.17.54.54,0,0,0-.15.4l0,.93-.68,0,0-.93h0a1.25,1.25,0,0,1,.33-.88,1.23,1.23,0,0,1,.85-.39h0A.58.58,0,0,0,16,9.83a.64.64,0,0,0,.15-.4h0l-.05-1.52a.36.36,0,0,1,.33-.35.34.34,0,0,1,.35.33l0,1.52h0a1.31,1.31,0,0,1-.12.56l1,0a.56.56,0,0,0,.38-.17.54.54,0,0,0,.15-.4h0L18.14,7a.34.34,0,0,1,.33-.35.34.34,0,0,1,.35.33l.07,2.39Z"/><path class="cls-5" d="M8.78,12.37a.7.7,0,1,1-.71.72.72.72,0,0,1,.71-.72Z"/><path class="cls-6" d="M13.57,12.68a.4.4,0,0,1,.41.38.41.41,0,0,1-.39.41.4.4,0,0,1,0-.79Z"/><path class="cls-2" d="M13.55,12.81a.17.17,0,0,1,0,.24.17.17,0,0,1-.24-.23.17.17,0,0,1,.24,0Z"/><path class="cls-1" d="M53.31,34.49c-.17,1.67,1.29,3.57,2.56,4.4l-4.75,3.85a.59.59,0,0,0-.09.84.6.6,0,0,0,.85.09l5.55-4.5a.64.64,0,0,0,.17-.28.59.59,0,0,0-.37-.76.61.61,0,0,1-.38-.76L57,37a3.14,3.14,0,0,1-.86-1.52l-2.82-1Z"/><path class="cls-2" d="M60.45,28.44a1.57,1.57,0,0,1,1.51,0,1.53,1.53,0,0,1-1,1.16,1.55,1.55,0,0,1-1.5,0,1.53,1.53,0,0,1,1-1.16Z"/><path class="cls-2" d="M53.22,27.47,59.5,29.6l2.12,7.93a.6.6,0,0,0,.74.42.6.6,0,0,1,.73.43h0L65,45.29a.62.62,0,0,1-.43.74.6.6,0,0,1-.73-.43L62.1,39.31c-2.2.59-5.81-2.36-6-3.86L46,32,41.2,30.38l-1.8,5.3a.6.6,0,0,1-1.13-.39l2-5.87a.6.6,0,0,1,.76-.37l4.44,1.51a6.91,6.91,0,0,1,.41-2c.88-2.57,2.87-6,4.36-9.19l-2.8-1.77a.86.86,0,0,1-.5-1.16L47.4,15l3.89,1.32,2.39.82L52,27l1.25.43Z"/><path class="cls-1" d="M56,17.9a1.63,1.63,0,0,1-2.88-1l2.88,1Z"/><path class="cls-1" d="M44.5,36.78a.64.64,0,0,1,0-.51L46,32l1.14.38L45.7,36.51l2.26,5a.6.6,0,0,1-.3.8.6.6,0,0,1-.79-.3L44.5,36.78Z"/><path class="cls-3" d="M53.54,26.55a1,1,0,1,1-1.23.6,1,1,0,0,1,1.23-.6Z"/><path class="cls-4" d="M57.93,15.7h0a1.19,1.19,0,0,1-.3.48l.26.09h0a1.3,1.3,0,0,0,1-.06,1.24,1.24,0,0,0,.63-.73h0l.82-2.42a.36.36,0,0,1,.44-.21.34.34,0,0,1,.21.43l-.82,2.42h0a2,2,0,0,1-.85,1.05l1,.32a.34.34,0,0,1-.21.65l-2.37-.81h0l-1.3-.44h0l-2-.67h0a.55.55,0,0,0-.69.35l-.3.88-.65-.22.3-.88h0a1.25,1.25,0,0,1,1.56-.78h0a.56.56,0,0,0,.7-.35h0l.48-1.44a.36.36,0,0,1,.44-.21.34.34,0,0,1,.21.43L56,15h0a1.19,1.19,0,0,1-.3.48l.93.32a.55.55,0,0,0,.42,0,.53.53,0,0,0,.28-.32h0l.77-2.26a.34.34,0,1,1,.64.22l-.77,2.26Z"/><path class="cls-5" d="M47.4,15A.71.71,0,1,1,47,16.33.71.71,0,1,1,47.4,15Z"/><path class="cls-6" d="M51.79,17a.4.4,0,0,1,.24.5.39.39,0,0,1-.5.25.4.4,0,1,1,.26-.75Z"/><path class="cls-2" d="M51.72,17.08a.17.17,0,0,1-.08.22.16.16,0,0,1-.22-.08.16.16,0,0,1,.07-.22.18.18,0,0,1,.23.08Z"/><path class="cls-1" d="M84.07,46.25c.05,1.68,1.75,3.37,3.12,4L83,54.72a.6.6,0,0,0,.88.82l4.9-5.19a.59.59,0,0,0,.14-.31.6.6,0,0,0-.47-.7.61.61,0,0,1-.48-.71l.09-.41a3.06,3.06,0,0,1-1-1.39l-2.93-.58Z"/><path class="cls-2" d="M90.35,39.3a1.52,1.52,0,0,1,1.49-.18A1.56,1.56,0,0,1,91,40.4a1.58,1.58,0,0,1-1.49.18,1.56,1.56,0,0,1,.8-1.28Z"/><path class="cls-2" d="M83.05,39.3l6.5,1.28,3.16,7.58a.6.6,0,0,0,.78.32.61.61,0,0,1,.79.32h0L97,55.41a.6.6,0,1,1-1.11.46l-2.51-6c-2.1.88-6.07-1.56-6.42-3L76.52,44.76l-5-1-1.09,5.49A.6.6,0,1,1,69.27,49L70.46,43a.6.6,0,0,1,.71-.47l4.59.9a7.36,7.36,0,0,1,.14-2.08c.53-2.66,2-6.37,3.1-9.69l-3-1.38a.87.87,0,0,1-.65-1.09l.29-1.44,4,.79,2.48.49L81.75,39l1.3.26Z"/><path class="cls-1" d="M84.49,29.46a1.64,1.64,0,0,1-1.69.72,1.66,1.66,0,0,1-1.3-1.31l3,.59Z"/><path class="cls-1" d="M75.65,49.69a.62.62,0,0,1-.07-.51l.88-4.43,1.18.24-.85,4.27,2.91,4.66a.6.6,0,0,1-.19.83.61.61,0,0,1-.83-.19l-3-4.87Z"/><path class="cls-3" d="M83.24,38.35a1,1,0,1,1-1.14.76,1,1,0,0,1,1.14-.76Z"/><path class="cls-4" d="M86.16,27h0a1.19,1.19,0,0,1-.24.52l.27,0h0a1.26,1.26,0,0,0,1-.19,1.21,1.21,0,0,0,.53-.8h0l.5-2.51a.33.33,0,0,1,.4-.26.32.32,0,0,1,.26.39l-.49,2.51h0a1.94,1.94,0,0,1-.7,1.15l1,.2a.34.34,0,1,1-.13.66l-2.45-.48h0L84.71,28h0l-2-.4h0a.54.54,0,0,0-.41.09A.51.51,0,0,0,82,28l-.18.91-.67-.13.18-.91h0a1.25,1.25,0,0,1,.52-.79,1.27,1.27,0,0,1,.92-.19h0a.58.58,0,0,0,.41-.09.5.5,0,0,0,.23-.35h0L83.74,25a.34.34,0,1,1,.66.13l-.29,1.49h0a1.36,1.36,0,0,1-.23.52l1,.19a.56.56,0,0,0,.42-.09.55.55,0,0,0,.23-.35h0L86,24.54a.34.34,0,0,1,.4-.27.33.33,0,0,1,.27.4L86.16,27Z"/><path class="cls-5" d="M75.63,27.71a.7.7,0,1,1-.85.55.71.71,0,0,1,.85-.55Z"/><path class="cls-6" d="M80.23,29.08a.39.39,0,0,1,.31.46.39.39,0,1,1-.31-.46Z"/><path class="cls-2" d="M80.18,29.2a.16.16,0,0,1-.05.23.17.17,0,0,1-.23,0,.16.16,0,0,1,0-.23.17.17,0,0,1,.23,0Z"/><path class="cls-2" d="M104.87,59.16a4,4,0,0,1,.54-8h0a.69.69,0,0,1,.63.73.68.68,0,0,1-.73.64,2.64,2.64,0,1,0-.36,5.27h0l33.13,2.3a.68.68,0,0,1-.1,1.36l-33.13-2.29Zm.56-8Z"/><path class="cls-7" d="M131,39.22a6,6,0,0,1,5.56,6.34l-11.94-.83A6,6,0,0,1,131,39.22Z"/><path class="cls-8" d="M129.9,39.94A3.81,3.81,0,0,1,133.44,44a3.88,3.88,0,0,1-.33,1.32l-7.13-.5a3.74,3.74,0,0,1-.14-1.34,3.8,3.8,0,0,1,4.06-3.54Z"/><path class="cls-9" d="M115.62,29.46l-.14,2.08L113,31.37l.14-2.08a.38.38,0,0,1,.4-.35l1.78.12a.38.38,0,0,1,.35.4Z"/><path class="cls-2" d="M115.86,32l-.09,1.39a.42.42,0,0,1-.45.39l-2.53-.17a.42.42,0,0,1-.38-.45l.09-1.39a.42.42,0,0,1,.45-.39l2.53.17a.42.42,0,0,1,.38.45Z"/><path class="cls-9" d="M115.75,46.58a1,1,0,0,0,1.07-1l.42-6.11h0a1.28,1.28,0,0,1,1.35-1.17l3.45.24,3.44.24a1.27,1.27,0,0,1,1.18,1.35h0l-.82,11.77-13.93-1,.21-3a1.61,1.61,0,0,1,1.72-1.5l1.91.13Z"/><path class="cls-10" d="M117.13,48.78l8.89.62-.08,1.14-8.89-.62a2.67,2.67,0,0,1-2.48-2.85l0-.57a.57.57,0,1,1,1.14.08l0,.57a1.54,1.54,0,0,0,1.42,1.63Z"/><path class="cls-9" d="M118.42,40.87a6.11,6.11,0,0,1-5.68-6.52l.05-.75,2.53.17,0,.75a3.57,3.57,0,0,0,3.32,3.82h0a1.27,1.27,0,1,1-.17,2.53Z"/><path class="cls-9" d="M129.72,29.39l-.11,1.66-1-.31a.3.3,0,0,0-.38.19l-.15.45a.3.3,0,0,0,.2.38l1.22.4,0,.36,2.53.17.21-3.13a.38.38,0,0,0-.34-.4L130.12,29a.38.38,0,0,0-.4.35Z"/><path class="cls-2" d="M129.06,32.9,129,34.3a.4.4,0,0,0,.38.44l2.53.18a.42.42,0,0,0,.45-.39l.09-1.39a.42.42,0,0,0-.38-.45l-2.53-.17a.42.42,0,0,0-.45.38Z"/><path class="cls-9" d="M125.3,41.35a6.13,6.13,0,0,0,6.53-5.68l0-.75-2.53-.18,0,.76a3.58,3.58,0,0,1-3.82,3.32h0a1.27,1.27,0,0,0-.18,2.53Z"/><polygon class="cls-11" points="125.07 44.76 116.92 44.2 116.82 45.62 124.97 46.19 125.07 44.76 125.07 44.76"/><path class="cls-12" d="M119.73,43.91l2.59.18a.3.3,0,0,1,.28.31l-.13,1.8a.29.29,0,0,1-.31.27l-2.6-.18a.29.29,0,0,1-.27-.31l.12-1.8a.31.31,0,0,1,.32-.27Zm0,1.92L122,46l.09-1.43-2.22-.15-.1,1.43Z"/><path class="cls-13" d="M126.58,41.31h0l-.74,10.63-1.26-.09.72-10.5h0a6.8,6.8,0,0,0,1.28,0Z"/><polygon class="cls-14" points="126.33 44.85 125.07 44.76 124.97 46.19 126.23 46.27 126.33 44.85 126.33 44.85"/><polygon class="cls-13" points="117.05 49.92 125.94 50.54 125.84 51.94 116.96 51.32 117.05 49.92 117.05 49.92"/><path class="cls-2" d="M137.75,46.9l-.44,6.39c-.2,2.82-2.35,3.93-4.62,3.77L111.58,55.6a2.5,2.5,0,0,1-2.52-2l-1-4.93,1.15.08a1.86,1.86,0,0,1,1,.42,2,2,0,0,1,.6,1,2.93,2.93,0,0,0,1.5,1.78,5.13,5.13,0,0,0,2.1.53l4.77.33c2.24.15,2.86-1,3.71-2.63.27-.5.57-1,.85-1.46,1.11-1.66,1.73-2.6,4.51-2.41l9.59.67Z"/><path class="cls-15" d="M107.83,48.61a.62.62,0,0,1-.58-.67.63.63,0,0,1,.67-.58l1.33.1h.09a3.1,3.1,0,0,1,1.6.71,3.31,3.31,0,0,1,1,1.52,1.77,1.77,0,0,0,.89,1.06,4.05,4.05,0,0,0,1.6.39l4.78.33c1.43.1,1.89-.77,2.52-2,.24-.45.71-1.27.91-1.56,1.36-2.05,2.13-3.21,5.64-3l9.59.67a.61.61,0,0,1,.58.67.63.63,0,0,1-.67.58l-9.59-.67c-2.78-.19-3.4.75-4.51,2.41-.28.42-.58,1-.85,1.46-.85,1.61-1.47,2.78-3.71,2.63l-4.77-.33a5.13,5.13,0,0,1-2.1-.53,2.93,2.93,0,0,1-1.5-1.78,2,2,0,0,0-.6-1,1.86,1.86,0,0,0-1-.42l-1.33-.1Z"/><path class="cls-1" d="M137.75,46.9l-.44,6.39c-.2,2.82-2.35,3.93-4.62,3.77L111.58,55.6a2.5,2.5,0,0,1-2.52-2l0-.21a2.59,2.59,0,0,0,2.16,1.13l18.15,1.26c2.27.16,4.42-1,4.62-3.78l.37-5.3,3.43.24Z"/><path class="cls-16" d="M119.73,43.91,121,44l0,.48-1.11-.08-.1,1.43,1.11.07,0,.48-1.3-.09a.29.29,0,0,1-.27-.31l.12-1.8a.31.31,0,0,1,.32-.27Z"/><path class="cls-1" d="M119.05,33.61l5.37.37a.42.42,0,0,1,.38.43l-.07,1a.4.4,0,0,1-.43.37l-5.38-.37a.4.4,0,0,1-.37-.43l.07-.94a.4.4,0,0,1,.43-.38Z"/><path class="cls-17" d="M121.92,31.18c2.46.17,4.37,1.48,4.27,2.93l-4.46-.31.19-2.62Z"/><path class="cls-13" d="M121.92,31.18a2.62,2.62,0,0,1,2.43,2.8l-5.23-.36a2.62,2.62,0,0,1,2.8-2.44Z"/><path class="cls-2" d="M126.27,33a1.07,1.07,0,0,1-.15,2.14,1.08,1.08,0,0,1-1-1.15,1.07,1.07,0,0,1,1.15-1Z"/><path class="cls-2" d="M124.29,35.73a4.5,4.5,0,0,1,.32,2c-.15,2.11-1.67,3.73-3.4,3.61s-3-1.93-2.87-4a4.47,4.47,0,0,1,.6-2l5.35.37Z"/><path class="cls-18" d="M124,35.71l-.07,1a.78.78,0,0,1-.83.73l-3.13-.22a.79.79,0,0,1-.72-.83l.07-1,4.68.33Z"/><path class="cls-19" d="M121.47,37.67a.53.53,0,0,1,.54.51.54.54,0,0,1-.61.44.55.55,0,0,1-.55-.52.54.54,0,0,1,.62-.43Z"/><path class="cls-20" d="M122.79,36a.32.32,0,0,1,.3.35.31.31,0,0,1-.35.3.33.33,0,1,1,.05-.65Z"/><path class="cls-2" d="M122.76,36.08a.13.13,0,0,1,0,.19.14.14,0,0,1-.19,0,.15.15,0,0,1,0-.2.14.14,0,0,1,.2,0Z"/><path class="cls-20" d="M120.39,35.8a.32.32,0,0,1,.3.35.33.33,0,1,1-.3-.35Z"/><path class="cls-2" d="M120.36,35.91a.14.14,0,0,1-.21.18.14.14,0,0,1,0-.19.14.14,0,0,1,.2,0Z"/><path class="cls-2" d="M119.85,35.21l.8,0a.19.19,0,0,1,.17.19v.08a.17.17,0,0,1-.19.16l-.8,0a.19.19,0,0,1-.17-.19v-.08a.17.17,0,0,1,.19-.16Z"/><path class="cls-2" d="M122.61,35.4l.79.05a.19.19,0,0,1,.17.2v.07a.18.18,0,0,1-.2.16l-.79-.05a.18.18,0,0,1-.17-.19v-.08a.19.19,0,0,1,.2-.16Z"/><path class="cls-21" d="M119.78,36.39a.61.61,0,0,1,.55.63.53.53,0,0,1-.08.25l-.33,0a.78.78,0,0,1-.69-.56.61.61,0,0,1,.55-.3Z"/><path class="cls-21" d="M123.31,36.64a.59.59,0,0,0-.63.55.53.53,0,0,0,0,.25l.33,0a.8.8,0,0,0,.77-.47.59.59,0,0,0-.51-.36Z"/><path class="cls-1" d="M121.5,37.11l0,.78c-.66,0-1.06.66-2,.59a1.92,1.92,0,0,1-1.62-1.63c1.46.86,1.82.13,3.64.26Z"/><path class="cls-1" d="M121.5,37.11l0,.78c.66,0,1,.8,1.87.86a1.92,1.92,0,0,0,1.83-1.39c-1.56.65-1.82-.13-3.65-.25Z"/><path class="cls-22" d="M121.19,36.52l.7,0a.34.34,0,0,1,.31.36v.15a.33.33,0,0,1-.35.31l-.7-.05a.33.33,0,0,1-.31-.35v-.16a.32.32,0,0,1,.35-.3Z"/><path class="cls-13" d="M125.19,38.8a3.43,3.43,0,0,1-3.33,3.07,2.7,2.7,0,0,1-1.78-.85,2.58,2.58,0,0,0,1.13.35,3.32,3.32,0,0,0,3.22-2.62l.76,0Z"/><path class="cls-23" d="M108.21,49.06l-.11,0-.09-.41,1.15.08a1.86,1.86,0,0,1,1,.42,1.89,1.89,0,0,1,.36.42,1.88,1.88,0,0,0-1-.4l-1.32-.09Zm29.51-1.75-9.18-.64c-2.78-.19-3.4.75-4.51,2.41-.28.42-.58,1-.85,1.46-.85,1.61-1.47,2.79-3.71,2.63l-4.77-.33a5.29,5.29,0,0,1-2.1-.52,3,3,0,0,1-1.09-1,2.94,2.94,0,0,0,.71.5,5.13,5.13,0,0,0,2.1.53l4.77.33c2.24.15,2.86-1,3.71-2.63.27-.5.57-1,.85-1.46,1.11-1.66,1.73-2.6,4.51-2.41l9.59.67,0,.41Z"/><path class="cls-24" d="M53.57,27.38a.34.34,0,0,0-.66.18c.4,1.52,2.31,3.66,4.85,5.7a34.67,34.67,0,0,0,8.43,5.05,34.89,34.89,0,0,0,9.6,2.13c3.24.26,6.11,0,7.44-.81a.34.34,0,0,0-.36-.58c-1.21.74-3.92,1-7,.7a34.23,34.23,0,0,1-9.4-2.07,34.11,34.11,0,0,1-8.25-5c-2.43-2-4.26-4-4.62-5.35Z"/><path class="cls-24" d="M18.87,21.82a.34.34,0,0,0-.56.4c.84,1.2,3.44,2.71,6.66,4A47.75,47.75,0,0,0,35.2,29.2a48.51,48.51,0,0,0,10.65.34c3.47-.27,6.41-.91,7.58-1.8a.35.35,0,0,0,.07-.48A.34.34,0,0,0,53,27.2c-1.07.81-3.87,1.39-7.23,1.65a47.59,47.59,0,0,1-10.48-.32,47.1,47.1,0,0,1-10.08-2.91c-3.11-1.28-5.59-2.7-6.36-3.8Z"/><path class="cls-24" d="M83.34,39.05a.39.39,0,0,0-.54,0,.38.38,0,0,0,0,.54c1.54,1.76,4.46,3.21,8.08,3.84a24.54,24.54,0,0,0,10.6-.55A24.77,24.77,0,0,0,110.88,38c2.81-2.37,4.6-5.1,5-7.39a.38.38,0,0,0-.75-.15c-.41,2.13-2.1,4.7-4.79,7A24.34,24.34,0,0,1,91,42.64c-3.45-.6-6.21-2-7.64-3.59Z"/></svg>