<svg filter="blur(9px)" id="Layer_1" data-name="Layer 1" xmlns="http://www.w3.org/2000/svg" viewBox="0 0 13.5 13.65"><defs><style>.cls-1{fill:#fff;}</style></defs><title>_GameSnowflake</title><polygon class="cls-1" points="6.97 11.99 6.97 2.43 6.25 2.43 6.25 11.99 6.97 11.99 6.97 11.99"/><polygon class="cls-1" points="6.61 4.76 4.79 2.94 5.3 2.43 6.61 3.73 6.61 4.76 6.61 4.76"/><polygon class="cls-1" points="6.61 4.76 8.43 2.94 7.92 2.43 6.61 3.73 6.61 4.76 6.61 4.76"/><polygon class="cls-1" points="6.61 9.65 4.79 11.47 5.3 11.99 6.61 10.68 6.61 9.65 6.61 9.65"/><polygon class="cls-1" points="6.61 9.65 8.43 11.47 7.92 11.99 6.61 10.68 6.61 9.65 6.61 9.65"/><polygon class="cls-1" points="2.65 9.91 10.93 5.13 10.57 4.5 2.29 9.28 2.65 9.91 2.65 9.91"/><polygon class="cls-1" points="8.73 5.99 9.39 3.5 10.1 3.69 9.62 5.47 8.73 5.99 8.73 5.99"/><polygon class="cls-1" points="8.73 5.99 11.21 6.65 11.4 5.95 9.62 5.47 8.73 5.99 8.73 5.99"/><polygon class="cls-1" points="4.49 8.43 2.01 7.76 1.82 8.47 3.6 8.95 4.49 8.43 4.49 8.43"/><polygon class="cls-1" points="4.49 8.43 3.83 10.92 3.12 10.73 3.6 8.95 4.49 8.43 4.49 8.43"/><polygon class="cls-1" points="10.57 9.91 2.29 5.13 2.65 4.5 10.93 9.28 10.57 9.91 10.57 9.91"/><polygon class="cls-1" points="4.49 5.99 3.83 3.5 3.12 3.69 3.6 5.47 4.49 5.99 4.49 5.99"/><polygon class="cls-1" points="4.49 5.99 2.01 6.65 1.82 5.95 3.6 5.47 4.49 5.99 4.49 5.99"/><polygon class="cls-1" points="8.73 8.43 11.21 7.76 11.4 8.47 9.62 8.95 8.73 8.43 8.73 8.43"/><polygon class="cls-1" points="8.73 8.43 9.39 10.92 10.1 10.73 9.62 8.95 8.73 8.43 8.73 8.43"/></svg>